<?xml version="1.0" standalone="no"?>
<!DOCTYPE svg PUBLIC "-//W3C//DTD SVG 20010904//EN"
 "http://www.w3.org/TR/2001/REC-SVG-20010904/DTD/svg10.dtd">
<svg version="1.0" xmlns="http://www.w3.org/2000/svg"
 width="392.000000pt" height="625.000000pt" viewBox="0 0 392.000000 625.000000"
 preserveAspectRatio="xMidYMid meet">
<metadata>
Created by potrace 1.16, written by Peter Selinger 2001-2019
</metadata>
<g transform="translate(0.000000,625.000000) scale(0.100000,-0.100000)"
fill="#000000" stroke="none">
<path d="M1559 5375 c-1 -3 -2 -9 -3 -14 0 -5 -4 -12 -7 -15 -10 -10 2 -56 15
-57 6 0 3 -4 -8 -8 -22 -9 -30 -66 -12 -84 7 -7 11 -18 9 -24 -4 -10 -9 -9
-20 3 -10 10 -25 13 -44 9 -18 -4 -29 -2 -29 4 0 27 -82 -5 -100 -39 -9 -16
-6 -22 21 -36 32 -16 30 -30 -6 -36 -14 -2 -19 2 -17 14 1 9 -2 19 -8 23 -14
9 -13 -61 1 -88 7 -12 20 -30 31 -40 16 -16 21 -17 35 -5 14 11 15 11 11 -2
-3 -8 8 -31 23 -51 16 -20 29 -42 29 -48 0 -7 7 -14 15 -17 23 -9 18 -31 -7
-29 -18 2 -22 8 -20 26 2 21 1 22 -10 7 -20 -27 -61 -27 -73 0 -10 23 -27 31
-23 11 2 -6 -3 -14 -11 -17 -10 -3 -12 0 -8 12 8 20 -16 21 -58 1 -29 -13 -29
-13 -5 -14 l24 -1 -23 -16 c-18 -13 -25 -14 -31 -4 -6 9 -11 7 -19 -8 -17 -31
-14 -37 24 -52 20 -8 30 -17 24 -21 -8 -4 -8 -8 0 -13 5 -4 19 -1 29 5 13 8
24 9 36 2 16 -9 16 -10 0 -24 -16 -12 -17 -12 -11 4 10 25 -3 21 -40 -15 -18
-18 -33 -27 -33 -20 0 7 5 12 11 12 5 0 7 5 3 12 -5 8 -14 4 -28 -13 -17 -20
-30 -24 -73 -24 -64 0 -73 -8 -43 -40 23 -24 23 -25 5 -45 -23 -25 -30 -25
-55 0 -19 19 -19 19 -26 -15 -3 -19 -3 -47 2 -62 7 -25 8 -51 5 -90 -1 -6 -18
-20 -38 -30 -40 -20 -68 -54 -77 -95 -5 -23 -3 -26 17 -22 l22 5 -22 -10 c-28
-13 -28 -17 -3 -58 32 -53 122 -85 136 -48 4 9 13 13 23 10 22 -7 55 47 46 76
-4 13 -2 25 5 29 20 13 2 64 -29 83 -15 9 -31 14 -35 10 -3 -3 -6 0 -6 8 0 12
-2 12 -9 0 -9 -14 -31 -7 -31 10 0 6 5 7 11 3 6 -3 15 0 20 7 6 10 9 10 9 2 0
-9 13 -6 40 8 22 12 40 26 40 31 0 7 5 6 14 -1 9 -8 22 -8 42 -1 25 9 38 6 85
-20 31 -16 65 -41 75 -55 10 -14 23 -25 28 -25 17 0 -37 51 -96 91 l-57 39 15
35 c18 44 18 65 -1 65 -8 0 -15 5 -15 10 0 6 5 10 10 10 6 0 10 7 10 15 0 10
10 15 29 15 37 0 59 24 41 45 -7 9 -10 19 -6 23 12 11 36 -29 31 -52 -4 -15
10 -39 45 -81 49 -59 61 -90 38 -97 -7 -3 -8 -10 -2 -21 8 -15 13 -15 28 -4
17 12 17 15 1 53 -9 21 -28 55 -44 74 -48 61 -53 75 -31 95 19 17 28 41 12 31
-4 -2 -14 -1 -22 5 -13 7 -12 9 3 9 9 0 17 6 17 14 0 7 7 19 15 26 13 11 13
15 0 33 -8 12 -15 29 -15 39 0 23 27 12 36 -15 6 -19 7 -19 16 -2 8 14 12 15
19 4 12 -19 11 -32 -1 -24 -16 10 -12 -57 5 -69 23 -17 40 -124 24 -154 -12
-21 -11 -26 4 -37 22 -16 22 -26 0 -19 -12 4 -14 3 -6 -3 7 -5 10 -17 8 -28
-2 -11 -4 -26 -4 -33 -1 -7 -5 -11 -10 -7 -6 3 -15 -4 -21 -15 -7 -13 -7 -20
0 -20 5 0 10 5 10 11 0 6 7 8 17 5 9 -4 19 -2 23 4 3 5 18 11 32 12 15 1 24 6
21 11 -3 5 -16 6 -30 2 -19 -4 -23 -3 -17 7 13 21 12 97 -2 178 -8 41 -21 119
-29 172 -8 53 -17 108 -20 121 -5 18 0 26 21 37 15 8 38 32 51 53 27 43 28 43
37 5 5 -21 2 -28 -14 -33 -14 -5 -20 -15 -20 -37 0 -41 63 -169 100 -202 38
-33 38 -40 -2 -51 -32 -10 -33 -12 -30 -55 2 -25 11 -59 22 -77 28 -48 27 -94
-4 -115 -9 -7 13 -12 36 -10 3 1 11 -5 17 -12 9 -11 3 -11 -32 -2 -23 6 -47
14 -53 18 -7 5 -14 0 -17 -11 -4 -17 0 -19 29 -14 21 3 34 1 34 -5 0 -6 -20
-14 -44 -17 -29 -5 -46 -13 -49 -24 -3 -11 -5 -9 -6 7 0 12 -5 22 -11 22 -5 0
-7 -6 -5 -12 2 -7 7 -29 10 -48 15 -81 18 -90 31 -90 18 0 18 -29 0 -52 -17
-23 -22 -23 -29 1 -3 11 -19 28 -36 39 -17 10 -28 22 -24 25 3 4 1 7 -5 7 -6
0 -14 -11 -18 -25 -4 -17 -13 -25 -28 -25 -12 0 -31 -6 -42 -14 -11 -9 -29
-12 -43 -9 -18 4 -22 3 -16 -7 5 -8 3 -11 -6 -8 -8 3 -13 11 -12 17 5 20 -15
12 -22 -9 -3 -11 -12 -20 -18 -20 -7 0 -25 -13 -42 -28 -16 -15 -37 -26 -46
-24 -18 3 -79 -44 -79 -61 0 -7 -14 -18 -31 -26 -18 -8 -28 -19 -25 -27 3 -8
0 -11 -8 -8 -13 5 -56 -44 -56 -63 0 -6 -9 -18 -20 -28 -53 -48 -104 -178
-126 -320 -18 -119 -18 -129 2 -121 13 5 14 3 6 -6 -18 -23 14 -238 38 -253 6
-3 10 -17 10 -30 0 -13 16 -44 35 -70 20 -25 33 -51 29 -56 -9 -15 45 -69 68
-69 11 0 18 -6 17 -12 -4 -21 33 -75 63 -93 16 -9 36 -28 46 -43 30 -47 42
-52 107 -46 78 8 135 -13 154 -57 8 -18 22 -34 33 -37 10 -2 25 -20 33 -38 8
-19 25 -39 39 -46 15 -6 26 -16 26 -22 0 -7 3 -7 8 1 5 9 11 6 21 -9 11 -18
11 -20 -3 -15 -29 11 -17 0 32 -32 27 -17 61 -31 75 -31 21 0 27 -5 27 -22 1
-31 19 -62 52 -87 24 -19 26 -24 16 -52 -8 -25 -7 -38 5 -64 19 -40 81 -89
101 -82 10 4 13 1 10 -7 -3 -7 2 -16 10 -19 25 -10 21 -74 -5 -87 -28 -15 -34
-7 -34 47 0 64 -22 68 -30 6 -10 -83 -43 -165 -80 -201 -36 -34 -44 -52 -24
-52 8 0 8 -5 -1 -15 -17 -20 -8 -37 31 -59 24 -14 30 -15 22 -4 -11 12 -9 19
11 37 23 21 24 21 57 4 18 -10 39 -25 45 -33 10 -12 8 -16 -9 -23 -26 -10 -75
12 -55 24 10 6 10 11 2 19 -9 9 -14 9 -19 0 -12 -19 4 -59 30 -76 23 -15 27
-15 43 -2 9 9 27 19 39 22 19 6 22 4 16 -11 -10 -29 -24 -43 -44 -43 -11 0
-19 -4 -19 -10 0 -5 -11 -10 -24 -10 -17 0 -24 -5 -22 -17 3 -22 56 -31 56
-10 0 8 14 25 31 37 16 13 38 37 47 52 9 15 22 28 30 28 10 0 12 10 7 37 -8
51 -17 57 -48 33 -27 -21 -27 -21 -27 -2 0 13 10 24 28 31 17 7 19 10 6 7 -20
-3 -21 -1 -12 28 7 21 17 32 31 33 54 5 45 65 -15 98 -27 15 -34 24 -28 35 6
12 18 72 20 103 0 4 5 7 11 7 16 0 49 39 65 76 26 62 -9 144 -56 129 -20 -6
-20 -7 5 -37 14 -16 22 -35 18 -41 -4 -6 -9 -2 -14 11 -4 11 -23 31 -42 44
-19 13 -32 29 -30 36 3 7 -4 12 -15 12 -11 0 -22 -6 -25 -12 -2 -7 -6 -1 -9
15 -4 19 -2 25 6 18 6 -4 23 -11 39 -15 15 -3 27 -11 27 -16 0 -10 66 -2 93
12 10 5 14 14 11 20 -4 7 -3 8 4 4 29 -18 44 85 16 115 -20 22 -11 39 20 39
30 0 77 37 75 59 -1 9 2 24 6 35 5 12 3 21 -6 27 -8 5 -10 9 -5 9 14 0 -26 41
-49 50 l-20 8 20 7 c61 21 73 29 84 51 6 14 11 34 11 44 0 18 44 50 68 50 6 0
13 -15 16 -33 9 -48 40 -77 82 -77 74 0 111 84 59 135 -13 14 -31 25 -40 25
-24 0 -18 13 24 54 38 37 61 41 61 9 0 -11 6 -14 24 -9 20 5 23 3 19 -14 -4
-14 2 -22 21 -30 71 -27 134 59 91 124 -12 17 -29 25 -65 30 -28 4 -50 11 -50
17 0 18 40 89 51 89 5 0 21 -7 34 -16 13 -9 28 -13 34 -10 5 3 11 0 14 -8 6
-15 43 -11 53 6 3 5 -5 6 -19 3 -22 -6 -23 -4 -19 24 5 35 34 43 50 14 9 -15
10 -14 16 4 9 29 -9 69 -39 89 -23 15 -31 16 -62 5 -19 -7 -36 -11 -38 -9 -1
1 0 27 2 56 5 49 7 53 27 47 45 -15 91 -16 110 -3 11 9 20 32 23 60 5 42 2 50
-22 72 -31 29 -66 33 -88 12 -33 -34 -49 -24 -63 39 -17 79 -17 77 5 65 28
-14 73 -12 98 5 38 27 35 101 -5 131 -22 17 -72 17 -96 -1 -17 -13 -17 -15 7
-39 l24 -24 -33 5 c-31 5 -34 4 -28 -13 11 -28 -1 -14 -45 54 l-40 61 47 13
c37 11 51 21 66 49 17 31 17 38 5 64 -17 35 -45 48 -36 16 3 -11 2 -23 -3 -26
-9 -6 -20 19 -20 46 0 13 -7 19 -22 19 -26 0 -111 -87 -101 -104 3 -6 -3 -2
-15 8 -29 25 -28 38 6 58 15 9 41 29 58 45 36 32 99 131 90 140 -3 4 -6 1 -6
-6 0 -15 -41 -5 -52 13 -6 8 -11 7 -17 -3 -7 -10 -9 -11 -13 0 -3 9 -25 12
-71 12 -65 -1 -87 9 -47 22 11 3 20 13 20 21 0 8 4 14 10 14 19 0 80 75 110
135 22 43 31 77 32 118 3 73 -10 86 -82 79 -61 -6 -71 10 -44 71 29 63 27 206
-3 268 -24 46 -58 89 -72 89 -17 0 -53 -39 -45 -51 4 -7 3 -9 -4 -6 -12 8 -67
-53 -55 -62 12 -9 14 -31 3 -31 -5 0 -10 7 -10 16 0 13 -7 15 -30 11 -17 -4
-30 -2 -30 3 0 6 8 10 17 10 13 0 14 3 5 12 -7 7 -12 30 -12 53 0 46 -26 155
-41 170 -5 5 -9 17 -9 27 0 11 -7 18 -19 18 -14 0 -18 5 -14 20 4 14 -1 22
-18 29 -13 4 -23 12 -22 17 2 5 -7 9 -20 9 -15 0 -21 5 -19 17 1 9 -6 22 -17
27 -14 8 -26 5 -52 -12 -40 -27 -47 -48 -48 -149 -1 -43 -4 -78 -8 -78 -5 0
-16 20 -26 45 -28 67 -153 185 -196 185 -9 0 -22 9 -29 20 -11 18 -70 30 -73
15z m449 -475 c7 0 12 -5 12 -11 0 -5 -4 -7 -10 -4 -15 9 -12 -1 9 -36 17 -28
20 -29 30 -12 6 10 11 13 11 8 0 -6 -5 -16 -10 -21 -7 -7 -2 -26 14 -57 20
-40 25 -45 36 -32 7 8 23 15 36 15 13 0 24 5 24 11 0 6 -6 9 -14 6 -8 -3 -17
-1 -20 6 -5 9 -7 9 -12 0 -8 -19 -37 -16 -31 2 4 8 2 17 -4 20 -16 11 0 23 26
20 14 -1 25 2 25 6 0 5 10 9 21 9 17 0 20 -5 17 -25 -3 -14 -1 -25 3 -25 10 0
12 -35 3 -67 -3 -12 -17 -24 -30 -27 -13 -4 -24 -13 -24 -21 0 -8 -4 -15 -10
-15 -5 0 -7 -7 -3 -16 4 -12 1 -15 -13 -12 -15 2 -20 13 -21 47 -3 47 -41 134
-55 125 -5 -3 -8 -2 -7 3 6 33 -3 53 -22 53 -15 0 -19 5 -15 15 3 8 -4 32 -16
52 l-22 38 30 -27 c17 -16 35 -28 42 -28z m30 -243 c6 -6 13 -24 17 -40 7 -26
25 -38 25 -16 0 6 7 9 15 5 8 -3 15 -1 15 4 0 5 16 12 35 16 37 7 58 24 29 24
-10 0 -15 3 -11 6 7 8 47 -5 47 -16 0 -4 -9 -10 -21 -13 -13 -4 -18 -10 -14
-18 6 -9 1 -10 -19 -5 -33 8 -70 -22 -60 -48 4 -11 1 -22 -7 -27 -12 -8 -12
-11 1 -19 13 -8 12 -10 -2 -10 -22 0 -23 -7 -2 -27 8 -9 12 -19 7 -22 -17 -13
-32 -50 -23 -56 13 -8 -11 -45 -30 -45 -25 0 -41 16 -34 33 4 13 10 14 24 7
25 -14 30 -13 24 5 -4 8 -15 15 -25 15 -20 0 -26 24 -9 35 15 10 12 35 -5 35
-15 0 -20 12 -9 23 10 9 30 -15 39 -48 9 -28 10 -26 15 25 5 55 -4 96 -35 152
-8 14 -15 29 -15 32 0 10 17 6 28 -7z m-688 -642 c0 -8 5 -15 11 -15 5 0 7 5
4 10 -4 6 5 10 19 10 24 0 21 -5 -36 -60 -33 -33 -56 -60 -51 -60 6 0 16 7 23
15 7 8 17 15 23 15 15 0 -1 -14 -43 -37 -19 -11 -47 -37 -62 -59 -31 -44 -91
-202 -84 -221 3 -6 1 -13 -4 -15 -5 -2 -14 -51 -21 -109 -9 -89 -9 -121 4
-205 9 -54 27 -129 41 -166 13 -38 20 -68 16 -68 -16 0 -78 82 -103 133 -13
29 -30 76 -37 105 -6 28 -19 56 -27 61 -11 6 -12 10 -4 15 18 11 13 46 -6 47
-15 1 -16 2 -2 6 12 3 23 32 38 101 11 53 24 107 27 120 4 13 2 22 -5 22 -6 0
-11 7 -11 17 0 9 3 13 7 9 6 -5 71 120 76 148 1 5 17 24 36 44 29 29 32 37 22
54 -10 17 -9 18 14 12 35 -9 56 11 49 45 -6 24 -5 25 8 7 14 -18 16 -18 42 -1
20 14 24 20 14 26 -10 7 -9 9 5 9 9 0 17 -7 17 -15z m90 -769 c12 -14 35 -28
51 -31 25 -6 29 -11 29 -40 0 -19 4 -36 9 -39 4 -3 11 -25 15 -48 3 -24 9 -59
12 -80 5 -30 2 -38 -14 -47 -17 -9 -25 -5 -51 25 -58 65 -131 233 -118 268 9
23 40 19 67 -8z m756 -128 c0 -46 5 -63 24 -83 18 -19 21 -28 12 -37 -13 -13
-94 -19 -86 -7 3 5 0 9 -5 9 -6 0 -11 19 -11 43 0 23 -9 59 -19 80 l-19 37 23
0 c13 0 27 5 30 11 4 5 17 9 28 7 20 -3 22 -9 23 -60z"/>
</g>
</svg>
