<svg version="1.0" xmlns="http://www.w3.org/2000/svg"
 width="1000.000000pt" height="967.000000pt" viewBox="0 0 1000.000000 967.000000"
 preserveAspectRatio="xMidYMid meet">
<g transform="translate(0.000000,967.000000) scale(0.100000,-0.100000)"
fill="#000000" stroke="none">
<path d="M3562 6788 c-7 -7 -12 -18 -12 -25 0 -7 -4 -13 -10 -13 -5 0 -10 -7
-10 -16 0 -9 -6 -14 -13 -11 -26 10 -41 -11 -40 -53 2 -32 -1 -40 -14 -38 -26
5 -34 -43 -11 -66 16 -17 18 -18 18 -3 0 9 5 17 11 17 6 0 8 -7 4 -17 -5 -15
-4 -16 6 -5 7 6 17 12 21 12 16 0 8 -21 -17 -46 -14 -14 -28 -39 -32 -54 -4
-25 -3 -28 15 -23 11 2 23 0 26 -6 4 -6 0 -11 -10 -11 -10 0 -14 -3 -11 -7 12
-11 -44 -62 -62 -56 -10 3 -12 2 -5 -4 7 -4 10 -20 9 -35 -2 -16 1 -30 6 -34
14 -9 10 -24 -7 -24 -8 0 -13 -4 -10 -8 9 -14 -16 -93 -28 -89 -14 5 -9 63 8
99 9 17 10 28 4 30 -7 3 -7 19 0 51 10 47 9 48 -9 31 -21 -19 -27 -84 -7 -84
9 0 9 -3 0 -12 -7 -7 -12 -20 -12 -29 0 -10 -5 -21 -12 -25 -7 -4 -8 -3 -4 4
8 13 -12 16 -31 4 -6 -4 -14 -29 -18 -57 -4 -27 -11 -63 -16 -80 -5 -16 -11
-56 -14 -87 -4 -32 -10 -58 -15 -58 -10 0 -24 37 -25 64 0 26 -33 46 -44 27
-5 -7 -13 -11 -19 -7 -18 11 -22 -23 -7 -58 8 -20 15 -43 15 -51 0 -14 -4 -14
-27 3 -16 11 -55 33 -88 50 -33 16 -85 42 -115 58 -31 16 -77 38 -103 49 -26
10 -47 23 -47 27 0 4 -4 8 -10 8 -5 0 -32 14 -60 31 -28 17 -53 29 -57 26 -8
-9 7 -27 23 -27 8 0 14 -4 14 -8 0 -4 14 -12 32 -17 19 -6 32 -17 34 -29 1
-10 9 -23 16 -27 10 -7 10 -9 1 -9 -7 0 -30 15 -50 34 -21 18 -47 35 -58 37
-14 3 -20 12 -20 33 -1 26 -32 55 -60 55 -5 0 4 -7 20 -17 l30 -17 -33 -3
c-21 -2 -43 4 -65 19 l-32 23 19 -22 c11 -13 36 -32 55 -44 39 -24 54 -43 56
-70 2 -22 -9 -23 -29 -3 -21 21 -29 19 -16 -5 9 -16 6 -22 -20 -35 -37 -19
-72 -12 -63 13 5 14 3 15 -8 5 -17 -17 -30 -17 -23 0 3 9 -4 13 -22 12 -15 0
-29 6 -32 14 -3 10 2 11 19 6 21 -7 22 -6 10 9 -16 19 -38 21 -44 4 -3 -10 -7
-10 -19 -1 -8 7 -17 10 -20 7 -3 -2 -8 2 -11 10 -4 9 -2 18 4 22 15 9 140 8
169 -1 23 -7 24 -6 11 9 -12 15 -29 17 -97 15 -46 -2 -86 0 -90 4 -13 13 -23
7 -17 -10 4 -10 2 -14 -5 -10 -6 4 -13 21 -17 37 -4 17 -10 30 -15 30 -15 0
-22 40 -10 55 8 10 8 19 2 32 -9 15 -11 11 -17 -21 -6 -28 -3 -48 11 -75 10
-20 23 -52 29 -71 6 -20 20 -39 33 -45 12 -5 22 -15 22 -22 0 -7 4 -13 9 -13
15 0 69 -97 85 -155 15 -51 21 -58 59 -74 36 -16 47 -28 76 -90 19 -39 39 -71
43 -71 14 0 9 16 -13 44 -11 14 -21 35 -22 46 -1 11 -6 21 -13 24 -26 10 -1
52 49 84 48 30 116 45 102 22 -7 -12 21 -12 88 -1 52 9 66 -7 25 -27 -19 -9
-6 -11 62 -11 97 1 126 -7 110 -26 -8 -10 -6 -15 11 -20 21 -7 21 -9 6 -20 -9
-7 -17 -22 -17 -35 0 -20 4 -22 30 -16 41 8 39 -13 -4 -41 -33 -21 -110 -128
-144 -200 -14 -29 -14 -34 1 -56 9 -13 12 -28 8 -33 -5 -5 -11 -24 -15 -42 -5
-30 -4 -33 16 -27 18 6 20 4 16 -19 -3 -15 -1 -29 3 -32 10 -6 25 28 31 67 4
30 30 53 40 36 9 -15 31 42 25 64 -3 12 3 19 20 24 30 7 39 1 45 -30 3 -13 1
-22 -3 -19 -5 3 -9 -4 -9 -16 0 -12 5 -18 10 -15 15 9 12 -57 -4 -77 -7 -10
-18 -18 -23 -18 -5 0 -16 -11 -23 -25 -7 -14 -20 -25 -27 -25 -8 0 -12 4 -9 8
2 4 0 14 -5 22 -8 13 -10 13 -18 0 -5 -8 -8 -17 -5 -22 3 -4 -5 -17 -17 -29
-15 -15 -30 -20 -50 -17 l-29 5 21 -24 c12 -12 30 -25 40 -28 10 -3 21 -14 24
-23 3 -9 23 -32 46 -51 37 -31 41 -32 58 -17 10 9 23 16 30 16 7 0 22 11 33
25 11 14 26 25 34 25 17 0 39 48 64 140 10 36 30 103 45 150 21 68 25 97 20
145 -3 33 -7 76 -9 96 -2 20 -6 41 -10 48 -10 15 3 34 19 27 7 -2 18 1 24 7 8
8 11 8 11 -2 0 -10 10 -11 36 -6 31 5 43 2 80 -24 42 -31 60 -39 50 -22 -8 12
70 -15 115 -39 20 -11 46 -20 58 -20 19 0 20 3 11 20 -6 11 -22 23 -35 26 -14
3 -23 10 -20 15 6 8 -28 30 -42 28 -20 -3 -27 2 -14 10 11 7 6 12 -20 19 -21
6 -39 5 -46 -1 -9 -6 -17 -6 -26 1 -7 6 -23 9 -35 5 -18 -4 -22 -1 -22 16 0
11 4 21 10 21 5 0 7 -7 3 -16 -3 -9 6 -4 21 10 31 32 31 33 9 39 -10 3 1 5 24
6 23 0 45 5 48 11 3 5 19 7 34 4 16 -4 32 -1 35 5 4 6 18 8 30 5 16 -4 25 0
29 10 4 9 16 16 27 16 30 0 60 18 60 35 0 8 -4 15 -10 15 -5 0 -10 13 -10 28
0 16 -3 32 -7 36 -5 4 -9 20 -9 34 -3 54 -14 95 -28 106 -17 13 -40 257 -35
367 3 54 1 73 -10 77 -9 3 -11 -1 -7 -16 5 -13 1 -22 -10 -26 -12 -5 -14 -10
-5 -19 8 -10 7 -17 -1 -25 -16 -16 -49 -15 -47 1 3 26 -1 38 -13 31 -7 -5 -8
-3 -4 5 5 7 10 10 13 8 2 -3 15 6 29 20 14 14 23 28 19 31 -3 3 -11 0 -17 -6
-18 -18 -46 -14 -53 8 -9 27 -25 25 -25 -3 0 -14 -6 -24 -14 -24 -12 0 -13 5
-5 20 9 16 8 18 -10 12 -16 -5 -21 -2 -21 10 0 30 33 89 67 121 18 18 33 37
33 43 0 15 -23 14 -38 -1z"/>
<path d="M450 6193 c-30 -28 -53 -97 -67 -204 -6 -49 28 -126 78 -175 43 -42
46 -53 24 -115 -12 -34 -13 -44 -3 -51 22 -14 152 -9 201 8 58 19 75 40 26 30
-120 -24 -217 -27 -204 -7 2 4 7 33 10 64 6 56 6 57 -33 94 -21 21 -47 59 -57
86 -17 45 -17 50 1 127 11 44 24 80 31 80 6 0 15 9 18 20 9 28 39 42 67 31 13
-5 33 -5 44 0 16 6 30 1 55 -21 33 -28 59 -38 59 -22 0 11 -68 52 -112 68 -63
22 -103 18 -138 -13z"/>
<path d="M598 6034 c-9 -9 -26 -17 -39 -18 -17 -1 -25 -11 -36 -51 -8 -27 -20
-56 -26 -64 -16 -19 18 -41 64 -41 21 0 39 -5 41 -12 7 -21 27 2 38 45 5 23
15 56 20 73 21 63 -22 108 -62 68z"/>
<path d="M2866 5738 c-51 -32 -85 -47 -97 -43 -20 7 -24 -2 -10 -24 6 -9 11
-10 15 -2 12 18 26 12 26 -10 0 -15 -4 -19 -16 -15 -10 4 -21 0 -28 -10 -11
-14 -13 -14 -25 0 -12 14 -11 16 3 10 12 -5 15 -2 10 10 -3 9 -12 16 -18 16
-16 0 -13 39 3 50 8 4 9 10 3 14 -14 8 -35 -21 -29 -39 4 -8 2 -17 -3 -20 -5
-3 -2 -18 6 -33 17 -33 18 -55 2 -50 -7 3 -13 15 -13 28 0 13 -6 25 -12 27
-18 6 -16 -18 4 -47 24 -36 33 -40 83 -40 51 0 102 24 148 69 17 17 36 31 44
31 14 1 58 34 58 44 0 6 -20 -3 -60 -26 -8 -4 -24 -12 -36 -17 -11 -5 -28 -17
-37 -26 -15 -15 -17 -15 -17 -1 0 19 -11 20 -29 4 -11 -11 -13 -8 -9 15 4 21
2 27 -8 23 -8 -3 -14 -1 -14 4 0 6 23 22 51 38 59 31 96 58 89 65 -3 2 -40
-18 -84 -45z"/>
<path d="M2420 4904 c-36 -8 -119 -16 -185 -18 -137 -3 -194 -19 -308 -87
-160 -95 -260 -175 -352 -280 -94 -108 -135 -163 -135 -180 0 -5 -19 -40 -42
-77 l-43 -67 3 -120 2 -120 -87 -137 c-95 -148 -233 -314 -289 -349 l-35 -21
-24 22 c-13 12 -49 34 -80 50 l-56 28 -67 -30 c-37 -17 -62 -33 -55 -35 7 -2
21 0 32 6 31 17 79 13 90 -6 8 -14 10 -14 11 -3 0 11 3 11 12 2 7 -7 32 -12
57 -12 42 0 44 -1 25 -15 -13 -11 -14 -14 -4 -13 8 2 14 -2 13 -9 -2 -8 4 -10
14 -6 11 4 6 -9 -17 -40 -37 -52 -55 -61 -39 -21 6 19 6 37 -1 60 -13 39 -16
40 -53 16 l-27 -19 20 -26 c12 -15 20 -28 18 -28 -24 -10 -51 -2 -74 22 -19
20 -37 29 -58 28 l-31 -1 30 -10 c17 -6 46 -25 65 -43 48 -45 78 -59 94 -46
10 8 17 7 26 -3 12 -16 5 -40 -10 -31 -14 9 -25 -17 -59 -130 -18 -60 -42
-130 -53 -155 -24 -54 -68 -189 -68 -210 0 -24 73 -90 99 -90 35 0 77 53 100
125 12 35 21 71 21 78 0 8 7 20 15 27 8 7 15 21 15 31 0 10 11 39 25 65 14 26
25 57 25 70 0 23 25 78 47 102 7 7 13 17 13 22 0 16 42 32 79 32 20 0 47 7 60
17 l23 18 -22 61 c-13 34 -27 62 -31 62 -15 0 -10 34 10 65 11 17 51 64 91
105 71 75 111 138 124 195 4 17 19 38 33 49 22 16 36 18 111 12 47 -3 88 -8
90 -11 3 -2 -3 -16 -12 -29 -10 -16 -14 -35 -10 -54 11 -56 -77 -288 -136
-357 -37 -42 -70 -103 -70 -126 0 -11 11 -52 25 -91 29 -82 32 -130 10 -148
-13 -11 -20 -9 -38 9 -13 11 -29 21 -35 21 -7 0 -12 9 -12 20 0 11 -4 20 -9
20 -5 0 -16 3 -24 6 -14 5 -47 -19 -47 -34 0 -7 72 -42 88 -42 4 -1 17 -9 29
-19 l22 -19 -26 -78 c-14 -44 -34 -90 -45 -103 -10 -13 -18 -31 -18 -39 0 -22
-39 -103 -62 -128 -24 -27 -58 -124 -58 -165 0 -61 101 -178 195 -227 63 -32
144 -52 212 -52 63 0 81 -4 127 -30 30 -17 67 -33 82 -35 16 -2 53 -11 82 -19
28 -8 52 -10 52 -5 0 5 -7 9 -14 9 -8 0 -27 12 -43 26 -24 22 -29 24 -39 10
-10 -14 -15 -12 -38 18 -16 22 -22 36 -14 38 6 2 -18 2 -55 0 -63 -4 -67 -3
-78 21 -8 19 -21 26 -53 30 -23 4 -53 3 -67 0 -23 -6 -22 -5 9 26 26 27 30 36
21 48 -7 8 -22 13 -33 11 -12 -1 -27 1 -33 5 -7 4 -22 3 -33 -3 -13 -7 -20 -7
-20 0 0 5 5 10 10 10 6 0 30 9 52 20 23 11 65 21 92 21 l51 2 -37 10 c-21 6
-38 16 -38 24 0 7 -9 12 -22 10 -15 -1 -23 3 -23 13 0 11 9 14 35 12 19 -2 40
-7 45 -11 6 -5 31 -14 58 -21 26 -7 50 -17 53 -21 3 -5 12 -9 21 -9 9 0 26 -9
38 -20 14 -13 39 -20 82 -23 34 -3 64 -2 67 1 11 10 -17 32 -40 32 -14 0 -32
4 -42 9 -42 22 -127 52 -227 81 -60 16 -109 31 -110 32 0 2 -5 16 -11 33 -5
16 -17 31 -27 33 -16 3 -18 -2 -15 -40 2 -36 7 -44 26 -46 30 -5 28 -30 -3
-38 -16 -4 -25 -13 -25 -26 0 -11 -4 -16 -11 -12 -6 3 -9 15 -6 25 3 12 -2 20
-14 24 -11 4 -17 11 -14 16 4 5 -3 9 -14 9 -25 0 -25 -1 -4 40 12 26 14 39 6
61 -9 23 -8 28 8 32 11 3 19 12 19 21 0 9 7 16 15 16 8 0 15 5 15 10 0 6 5 10
10 10 6 0 10 -7 10 -15 0 -16 35 -21 44 -6 9 14 -18 30 -67 40 -53 9 -72 2
-63 -26 4 -13 -2 -29 -18 -46 -28 -30 -46 -35 -46 -11 0 8 5 12 10 9 6 -3 10
1 10 9 0 9 5 16 10 16 6 0 10 5 10 10 0 6 -6 10 -12 10 -12 0 -21 -17 -68
-122 -11 -27 -25 -48 -30 -48 -6 0 -10 -8 -10 -17 -1 -10 -7 -3 -16 16 -19 45
-12 63 21 55 21 -5 26 -1 35 22 7 18 8 37 1 56 -13 36 4 78 30 78 20 0 49 56
49 94 0 48 21 95 48 109 24 11 27 17 24 59 -3 43 -1 46 18 41 14 -4 29 2 45
17 24 22 26 23 62 7 21 -9 54 -19 73 -22 83 -15 156 -47 192 -85 l37 -38 -19
-25 c-24 -30 -26 -47 -5 -47 8 0 24 -13 37 -30 12 -16 30 -30 40 -30 10 0 18
-7 18 -15 0 -8 12 -23 27 -32 15 -10 35 -25 44 -34 9 -9 25 -21 34 -26 16 -10
16 -11 0 -31 -15 -17 -21 -18 -39 -9 -12 7 -23 15 -26 18 -8 10 -48 29 -60 29
-19 0 8 -38 41 -57 17 -10 37 -32 46 -50 8 -17 27 -39 41 -49 33 -21 82 -75
82 -91 0 -6 9 -18 19 -25 19 -14 66 -116 57 -125 -2 -2 -22 5 -45 17 -51 25
-51 27 -7 -57 15 -30 15 -32 -1 -35 -10 -2 -26 1 -36 6 -14 9 -21 7 -31 -6 -7
-10 -16 -18 -21 -18 -15 0 -50 -36 -52 -54 -1 -17 18 -46 31 -46 2 0 7 8 9 18
4 14 5 13 6 -4 1 -12 12 -26 27 -33 14 -6 24 -17 22 -24 -7 -19 -54 -20 -111
-1 -56 19 -167 24 -257 11 -235 -32 -363 -60 -395 -87 -23 -20 -78 -46 -117
-55 -28 -7 -36 -19 -19 -30 5 -3 12 -1 16 5 3 5 18 10 33 10 16 0 32 8 40 20
12 20 42 28 42 11 0 -5 -7 -14 -15 -21 -8 -7 -15 -23 -15 -36 0 -19 -5 -24
-25 -24 -27 0 -73 -18 -94 -38 -7 -7 -21 -10 -30 -7 -11 3 -27 -5 -42 -21 -13
-14 -33 -30 -44 -35 -30 -14 -61 -33 -78 -48 -9 -7 -22 -9 -28 -5 -9 5 -10 -1
-6 -24 6 -27 3 -31 -24 -41 -47 -16 -25 -31 46 -31 55 0 66 3 76 21 8 15 8 24
0 32 -15 15 -14 37 3 37 20 0 45 32 28 37 -24 9 -1 23 26 17 40 -10 49 -22 26
-39 -16 -12 -17 -14 -2 -15 9 0 26 12 37 26 12 15 21 21 21 13 0 -8 -22 -29
-50 -47 -84 -55 -58 -78 42 -38 36 14 68 26 72 26 4 0 15 7 23 16 11 11 26 14
50 9 21 -4 33 -2 33 5 0 6 4 9 10 5 6 -4 6 -15 0 -30 -7 -20 -6 -25 5 -25 8 0
15 -4 15 -10 0 -14 38 -12 47 3 4 7 20 18 36 25 15 6 32 23 37 38 9 24 13 25
53 19 51 -9 57 -12 57 -31 0 -8 4 -13 9 -10 4 3 6 -6 3 -20 -2 -14 -13 -31
-23 -37 -11 -7 -19 -16 -19 -21 0 -5 9 -1 20 9 14 12 20 14 20 5 0 -19 -31
-39 -61 -40 -15 0 -37 -12 -54 -30 -16 -17 -39 -30 -51 -30 -12 0 -24 -7 -28
-15 -8 -21 12 -19 57 5 20 11 37 16 37 11 0 -15 -30 -41 -47 -41 -8 0 -13 -5
-11 -12 6 -17 -51 -54 -94 -62 -36 -7 -71 1 -64 13 3 4 1 13 -4 21 -6 10 -12
11 -22 2 -24 -19 -126 -18 -146 2 -16 16 -15 17 12 14 28 -3 30 0 32 31 1 18
7 37 13 41 19 11 -15 34 -36 25 -10 -5 -21 -7 -25 -7 -5 1 -8 -3 -8 -8 0 -6
-9 -10 -20 -10 -13 0 -18 -5 -14 -15 4 -8 1 -15 -5 -15 -6 0 -11 6 -11 13 0 7
-14 12 -35 13 -20 0 -31 -4 -28 -9 3 -6 1 -7 -5 -3 -6 4 -21 2 -32 -4 -17 -9
-22 -7 -30 16 -6 14 -19 28 -30 31 -11 3 -20 14 -20 24 0 24 -16 33 -24 13
-12 -31 -6 -140 9 -160 20 -26 19 -47 -6 -89 -16 -26 -19 -44 -15 -68 9 -43 9
-62 1 -127 -9 -66 -2 -75 65 -83 30 -4 52 -14 65 -29 17 -20 30 -23 98 -24 63
-1 80 -5 91 -20 14 -18 17 -18 111 5 91 22 155 49 267 115 62 36 176 68 197
56 13 -8 11 -9 -9 -10 -22 0 -67 -19 -47 -20 4 0 3 -9 -3 -21 -7 -12 -8 -25
-2 -32 5 -7 5 -23 1 -37 -4 -14 -8 -18 -8 -10 -1 12 -4 11 -12 -3 -8 -13 -7
-22 1 -32 7 -9 8 -15 0 -20 -15 -9 -12 -25 4 -25 8 0 17 -7 20 -16 9 -22 8
-24 -9 -24 -9 0 -15 -6 -14 -12 6 -46 -4 -79 -32 -109 -28 -30 -29 -34 -14
-46 10 -7 15 -19 12 -28 -10 -25 3 -46 25 -39 13 4 24 -1 33 -12 13 -18 14
-18 36 1 l22 20 -6 -26 c-4 -14 -4 -29 -1 -32 10 -10 44 12 44 28 0 20 -17 19
-23 0 -3 -11 -4 -10 -3 2 1 14 9 17 34 15 18 -1 32 2 32 8 0 5 -7 10 -15 10
-8 0 -15 8 -15 19 0 10 -7 24 -15 31 -8 7 -15 18 -15 24 0 6 -8 37 -17 68 -14
45 -23 58 -38 59 -11 0 -3 6 20 14 22 7 32 13 23 14 -19 1 -25 36 -8 46 10 6
11 16 11 114 1 26 4 39 9 32 6 -10 12 -10 29 -1 18 9 20 14 10 26 -8 10 -15
12 -23 4 -5 -5 -17 -10 -25 -10 -13 1 -13 2 2 11 24 14 21 27 -5 31 -19 2 -12
9 36 36 33 17 66 32 74 32 25 0 162 79 223 129 32 25 70 54 84 65 15 10 38 43
52 72 26 58 82 114 114 114 16 0 20 5 17 28 -4 39 -34 39 -91 1 -48 -31 -71
-33 -47 -4 18 22 78 46 122 49 21 2 45 9 54 16 13 12 17 11 25 -1 5 -8 9 -18
9 -24 0 -5 14 -24 30 -42 17 -18 30 -37 30 -42 0 -6 9 -20 20 -31 11 -11 20
-18 20 -15 0 3 9 1 20 -5 28 -15 47 -48 54 -94 4 -21 9 -42 12 -47 3 -5 0 -9
-6 -9 -13 0 -8 -31 22 -138 12 -39 25 -72 31 -72 5 0 6 7 3 16 -3 9 -9 34 -12
57 l-6 42 21 -33 c12 -18 21 -37 21 -43 0 -7 16 -47 36 -91 24 -54 33 -83 26
-90 -7 -7 -5 -21 4 -44 8 -18 14 -42 14 -53 0 -11 8 -37 18 -58 30 -67 49 -69
78 -10 21 43 21 44 2 56 -13 8 -17 18 -12 36 4 17 2 25 -7 25 -8 0 -4 8 9 20
26 24 29 66 6 98 -8 12 -13 31 -9 42 8 26 -15 102 -37 118 -19 14 -25 42 -8
42 6 0 10 5 10 11 0 6 -8 9 -18 7 -11 -3 -35 7 -57 23 -21 16 -33 29 -27 29
18 0 14 21 -5 36 -11 8 -13 13 -5 14 6 0 12 5 12 11 0 6 -8 8 -17 5 -12 -3
-25 4 -36 20 -18 25 -18 26 0 40 10 9 12 12 4 8 -9 -4 -12 -3 -8 4 4 5 16 8
27 5 11 -3 20 0 20 6 0 6 5 11 11 11 6 0 9 -10 7 -22 -2 -13 -10 -23 -18 -23
-8 0 -16 -8 -18 -18 -3 -16 0 -18 20 -12 12 4 31 9 42 12 10 3 28 0 40 -5 11
-6 39 -16 61 -21 l40 -11 -38 36 c-20 19 -34 40 -31 46 4 7 15 0 27 -17 11
-15 38 -43 59 -63 34 -31 37 -37 22 -45 -13 -7 -21 -5 -29 7 -7 9 -17 16 -24
16 -25 0 -9 -36 35 -77 37 -36 45 -49 40 -69 -5 -20 -3 -24 14 -24 28 0 35 23
15 54 -11 16 -14 32 -9 43 4 10 8 21 8 25 1 3 4 9 7 12 3 4 9 -25 13 -63 3
-38 15 -88 25 -112 21 -47 19 -64 -3 -33 -14 18 -15 18 -21 2 -4 -10 -14 -18
-23 -18 -33 0 0 -13 38 -15 42 -2 71 -27 84 -75 4 -14 11 -34 16 -45 15 -35
39 -149 51 -241 21 -161 25 -258 17 -414 l-3 -55 -43 -2 c-27 -1 -40 3 -36 9
4 6 1 8 -7 6 -8 -3 -13 -11 -11 -18 1 -6 -3 -10 -10 -8 -7 3 -19 -1 -26 -8 -7
-7 -20 -10 -28 -7 -11 4 -12 8 -4 13 14 8 4 50 -11 50 -5 0 -9 -12 -9 -28 0
-15 -3 -47 -6 -72 l-6 -45 34 33 c24 22 43 32 66 32 32 0 125 40 136 59 4 5 2
12 -4 16 -22 14 -7 36 43 65 83 47 122 83 110 103 -9 17 -11 16 -28 -3 -27
-30 -50 -25 -69 18 -18 39 -19 99 -2 82 17 -17 45 -11 57 12 9 17 8 24 -5 34
-13 9 -16 20 -11 48 4 20 11 33 16 30 9 -5 150 114 191 161 26 29 40 91 40
172 0 50 5 76 14 84 20 16 19 113 -1 129 -12 10 -18 10 -30 0 -13 -11 -15 -8
-15 18 0 33 20 59 56 72 13 5 26 20 30 34 3 13 12 27 19 29 7 3 3 -14 -12 -45
-13 -28 -21 -53 -18 -56 3 -4 23 2 43 13 l37 20 3 80 c2 54 8 85 18 96 12 13
14 29 9 63 -7 43 -6 46 20 56 26 10 75 55 127 119 15 18 58 60 95 93 38 32 76
73 85 91 10 17 27 35 38 39 11 4 32 25 47 47 16 22 32 40 37 41 5 0 27 16 50
36 22 20 52 46 66 58 14 12 44 27 67 34 28 8 44 20 49 35 4 12 15 33 25 46 11
13 19 34 19 47 0 24 -14 32 -25 14 -3 -5 -17 -10 -30 -10 -19 0 -23 -4 -18
-17 5 -13 3 -15 -13 -9 -16 6 -17 5 -6 -6 11 -11 16 -10 28 6 12 17 14 17 14
4 0 -21 -38 -34 -53 -19 -15 15 -47 14 -47 -1 0 -9 -3 -8 -10 2 -8 13 -11 13
-22 1 -10 -10 -10 -12 0 -7 7 4 12 1 12 -7 0 -8 -14 -20 -31 -27 -28 -12 -33
-11 -57 14 l-27 27 28 20 c15 12 27 29 27 39 0 27 117 34 143 8 23 -24 43 -23
50 2 6 23 -16 45 -37 37 -18 -7 -66 46 -66 72 0 9 6 23 12 29 10 10 10 17 0
33 -8 12 -11 24 -8 27 3 3 6 0 6 -6 0 -7 4 -12 10 -12 17 0 -1 29 -23 36 -15
5 -26 0 -38 -15 -21 -26 -39 -27 -39 -2 0 10 9 21 20 24 11 3 20 10 20 16 0
11 -18 15 -52 12 -31 -3 -29 19 6 52 27 26 49 37 98 46 35 7 78 19 96 27 42
18 71 18 78 -1 5 -11 22 -15 64 -15 76 0 112 13 103 37 -16 43 -61 56 -106 31
-12 -7 -33 -13 -47 -13 -14 -1 -42 -5 -62 -9 -33 -7 -37 -6 -40 14 -2 17 -14
26 -46 35 -38 12 -45 11 -65 -6 -12 -10 -33 -28 -47 -40 -14 -11 -19 -18 -12
-14 7 4 12 -1 12 -14 0 -27 -53 -37 -100 -18 -57 24 -110 10 -110 -29 0 -21 3
-24 28 -19 19 5 14 0 -15 -14 -24 -11 -43 -23 -43 -27 0 -4 23 -4 50 -1 28 3
50 2 50 -3 0 -5 7 -7 15 -4 8 4 15 1 15 -5 0 -6 -9 -11 -20 -11 -12 0 -20 -7
-20 -18 0 -9 9 -23 20 -30 33 -20 25 -42 -15 -42 -19 0 -35 -4 -35 -10 0 -16
-50 -12 -56 5 -9 23 -55 18 -96 -10 -20 -14 -41 -25 -46 -25 -5 0 -15 -7 -22
-15 -10 -12 -9 -16 6 -22 25 -9 53 -44 54 -65 0 -22 -13 -23 -30 -3 -7 8 -21
15 -32 15 -16 0 -18 -3 -9 -13 9 -11 -4 -13 -75 -11 -48 2 -88 5 -91 7 -2 3
-5 19 -5 37 -1 29 -3 31 -27 26 l-26 -6 26 22 c15 13 42 34 60 47 29 20 30 22
9 16 -14 -4 -47 -10 -75 -14 -54 -8 -84 -21 -105 -46 -8 -10 -24 -21 -37 -26
-16 -6 -23 -17 -23 -34 0 -32 12 -32 77 5 59 34 73 32 73 -8 -1 -20 -12 -35
-46 -60 -35 -26 -43 -36 -34 -47 8 -10 7 -19 -7 -34 -21 -26 -41 -27 -39 -4 2
26 -27 22 -39 -5 -8 -17 -18 -22 -47 -22 -22 0 -40 -6 -45 -14 -4 -8 -27 -21
-51 -29 -38 -13 -44 -13 -49 0 -10 25 14 63 40 63 29 0 62 33 54 55 -4 8 -16
15 -28 15 -21 0 -21 1 -6 18 26 28 21 49 -12 55 -16 4 -31 14 -33 23 -2 13
-10 10 -43 -16 -22 -18 -68 -45 -101 -61 -34 -16 -67 -36 -74 -44 -7 -8 -17
-15 -23 -15 -16 0 -97 -43 -97 -52 0 -4 -4 -8 -10 -8 -5 0 -30 -16 -56 -35
-50 -38 -160 -105 -173 -105 -5 0 1 25 12 56 15 42 30 62 53 76 35 20 55 81
35 101 -6 6 -11 19 -11 29 0 21 -11 23 -27 7 -24 -24 -45 -2 -41 42 2 27 -1
44 -9 46 -8 3 -13 -4 -13 -16 0 -20 -14 -34 -38 -37 -21 -4 -51 -47 -52 -76 0
-15 -12 -40 -27 -56 -16 -17 -38 -43 -50 -59 l-21 -28 -6 40 c-21 131 -44 225
-81 340 -6 18 -5 18 14 -3 12 -14 17 -30 14 -40 -5 -13 -1 -12 18 5 32 29 89
42 89 21 0 -18 51 -31 86 -22 17 5 24 2 24 -9 0 -8 -5 -17 -11 -19 -16 -5 1
-39 19 -36 11 2 16 17 17 48 4 76 -3 90 -40 90 -18 0 -44 9 -59 21 -14 11 -26
15 -26 9 0 -6 7 -13 15 -16 10 -4 13 -13 10 -25 -4 -11 -2 -19 4 -19 6 0 11 4
11 8 0 4 8 8 19 8 12 0 17 -5 13 -15 -3 -9 -1 -12 6 -7 6 3 14 1 18 -5 4 -8 3
-9 -4 -5 -7 4 -12 3 -12 -3 0 -14 -52 3 -92 31 -18 12 -35 24 -37 25 -2 1 -3
13 -3 27 0 24 -1 24 -21 5 -38 -35 -71 -15 -82 51 -4 25 -13 59 -20 77 -8 18
-17 53 -20 78 -4 25 -11 48 -16 51 -5 3 -9 16 -9 29 0 13 -4 25 -8 27 -12 5
-43 108 -36 119 3 6 -2 21 -11 35 -9 14 -13 33 -10 43 3 10 -4 56 -16 102 -11
46 -22 100 -23 119 -1 19 -8 59 -14 88 -7 28 -17 76 -23 105 -16 75 -33 127
-41 127 -17 0 -19 -23 -3 -40 11 -12 14 -26 10 -41 -5 -13 -2 -24 6 -30 10 -6
10 -13 1 -34 -11 -23 -14 -25 -27 -11 -8 8 -15 22 -15 31 0 9 -4 14 -9 10 -12
-7 -41 22 -43 43 0 9 -2 22 -3 27 -1 6 -5 38 -10 73 -4 34 -12 62 -16 62 -13
0 -10 -112 6 -225 14 -98 14 -100 -6 -117 -11 -10 -18 -22 -14 -28 7 -12 -3
-50 -14 -50 -4 0 -6 14 -3 30 4 29 3 31 -22 24 -23 -5 -26 -3 -26 21 0 31 -20
30 -35 -3 -5 -12 -16 -23 -25 -25 -11 -3 -8 -7 10 -15 40 -17 0 -14 -48 5 -28
10 -41 21 -38 29 4 11 2 11 -14 2 -15 -10 -22 -10 -32 0 -6 6 -19 12 -28 12
-12 0 -16 10 -17 37 -1 26 2 32 9 22 7 -10 8 -5 4 18 -4 23 -1 33 12 38 13 5
14 8 3 15 -8 4 -20 6 -27 3 -6 -2 -15 1 -19 7 -4 7 2 14 14 17 12 3 21 10 21
15 0 5 -4 6 -10 3 -6 -3 -7 1 -4 9 4 11 0 16 -14 16 -52 0 -61 99 -8 100 4 0
5 -11 2 -25 -6 -22 -3 -25 19 -25 20 0 25 5 26 28 3 72 -14 102 -49 83 -30
-16 -32 -14 -32 19 0 17 -7 45 -16 62 -17 33 -9 48 29 48 20 0 71 -49 101 -95
11 -16 38 -46 60 -67 41 -36 79 -99 90 -151 9 -39 30 -29 34 17 4 40 -4 52
-115 187 -67 80 -117 124 -133 114 -13 -8 -13 35 1 74 14 39 3 53 -20 26 -19
-22 -61 -49 -67 -42 -7 7 21 57 32 57 6 0 16 11 22 25 6 14 17 25 23 25 8 0
10 12 6 37 -5 31 -1 45 20 76 25 36 29 38 65 32 37 -7 38 -6 44 25 8 37 48 59
76 41 10 -6 24 -11 31 -11 18 0 39 -47 32 -71 -4 -11 -2 -19 4 -19 6 0 8 -19
5 -46 -5 -39 -2 -49 20 -71 18 -17 26 -37 26 -59 0 -19 5 -34 10 -34 13 0 13
36 -1 75 -14 39 9 81 70 125 23 17 58 55 77 86 42 66 343 366 389 388 42 20
88 87 87 127 0 17 -12 45 -26 63 -49 65 -123 79 -256 50z m-242 -1496 c2 -17
8 -38 14 -46 10 -11 8 -16 -5 -23 -21 -12 -22 -33 -2 -49 10 -9 15 -9 15 -1 0
6 5 11 10 11 6 0 10 -9 10 -19 0 -11 5 -23 10 -26 11 -7 14 -68 3 -78 -3 -4
-12 -2 -18 3 -17 14 -31 -58 -16 -73 6 -6 11 -20 11 -31 0 -18 -1 -18 -25 4
-24 22 -25 29 -25 127 0 61 -5 113 -12 126 -6 12 -15 39 -18 59 -6 29 -4 38 9
41 33 9 37 6 39 -25z m-464 -183 c-4 -23 -2 -35 5 -35 6 0 11 -8 12 -17 0 -11
3 -13 6 -5 7 17 33 15 33 -2 0 -8 -4 -18 -10 -21 -5 -3 -9 -17 -8 -29 2 -21 5
-23 26 -15 31 12 72 12 72 0 0 -5 -10 -13 -21 -16 -18 -6 -20 -13 -16 -41 3
-19 5 -34 4 -34 -1 0 -69 20 -151 43 -121 35 -153 48 -169 69 -18 24 -18 27
-2 52 23 35 95 35 95 0 0 -29 30 0 41 39 10 37 12 40 24 24 16 -23 25 -22 25
3 0 13 7 20 20 20 18 0 20 -4 14 -35z m407 -198 c0 -37 27 -139 57 -214 11
-28 17 -54 15 -57 -3 -3 -1 -18 4 -33 6 -15 16 -46 23 -68 12 -40 52 -134 71
-168 13 -24 10 -27 -18 -16 -15 5 -23 17 -23 31 -1 13 -11 36 -24 52 -20 24
-27 26 -44 17 -30 -16 -89 -14 -95 3 -3 8 -3 17 0 20 12 12 41 6 47 -10 9 -23
26 -7 26 26 0 15 7 30 15 34 19 7 19 52 1 88 -8 15 -17 41 -21 58 -4 17 -16
40 -28 50 -11 11 -16 20 -10 20 15 0 9 68 -11 114 -17 40 -21 78 -10 89 13 12
24 -4 25 -36z m1884 -933 c-9 -19 -20 -34 -25 -34 -5 0 -22 12 -39 26 -29 24
-32 24 -58 10 -16 -8 -48 -25 -73 -36 -25 -12 -53 -29 -62 -37 -17 -15 -20
-14 -43 11 -29 32 -32 46 -7 46 14 0 15 2 2 10 -8 5 -12 11 -9 14 7 8 81 18
135 20 22 0 48 7 58 15 14 12 21 12 41 1 21 -11 27 -10 57 15 l33 28 3 -27 c2
-15 -4 -43 -13 -62z"/>
<path d="M4540 4280 c-10 -23 -10 -37 -2 -55 8 -17 8 -25 -1 -28 -7 -2 -5 -16
8 -43 11 -24 20 -64 21 -102 1 -45 6 -68 20 -83 10 -12 21 -44 25 -72 l6 -52
2 45 c2 59 8 66 58 75 34 5 44 4 49 -9 3 -8 21 -18 40 -22 34 -6 44 -19 22
-27 -7 -2 5 -9 27 -15 44 -13 90 -41 66 -42 -10 0 -11 -3 -2 -14 9 -10 8 -15
-4 -20 -19 -7 -20 -26 0 -26 8 0 15 -4 15 -10 0 -5 -8 -10 -17 -10 -10 0 -48
-21 -85 -46 -49 -33 -68 -52 -68 -68 0 -12 -7 -32 -16 -44 -10 -14 -11 -22 -3
-22 6 0 9 -7 5 -15 -8 -21 8 -19 29 5 10 11 24 20 31 20 8 0 19 9 26 20 21 32
42 26 34 -11 -3 -17 -6 -37 -6 -43 0 -7 -16 -20 -35 -29 -44 -21 -45 -21 -45
-1 0 8 -5 12 -10 9 -6 -4 -7 -11 -4 -17 4 -6 2 -8 -4 -4 -6 3 -13 2 -16 -3 -3
-5 -16 -7 -27 -4 -22 6 -22 6 -4 -28 10 -19 24 -45 31 -59 8 -16 21 -25 36
-24 43 1 96 25 114 52 10 15 39 53 65 84 44 53 55 77 75 153 4 17 8 33 9 38 2
4 3 9 4 12 0 3 15 -1 31 -10 17 -9 30 -13 30 -10 0 3 33 -27 73 -65 54 -52 73
-65 76 -53 2 10 -2 19 -8 21 -14 5 -14 29 0 34 7 2 5 9 -5 17 -14 12 -16 12
-10 -3 4 -11 1 -16 -10 -16 -9 0 -16 7 -16 15 0 8 -16 22 -35 31 -37 17 -56
37 -34 33 27 -3 40 1 34 11 -7 11 0 10 80 -9 34 -8 92 -7 101 1 6 6 10 38 18
133 5 55 58 228 76 250 16 19 4 35 -26 35 -15 0 -24 6 -24 16 0 14 -2 15 -17
3 -15 -12 -16 -12 -10 4 4 12 1 17 -10 17 -14 0 -13 4 5 23 26 27 28 37 8 37
-8 0 -18 -9 -21 -20 -3 -11 -12 -20 -20 -20 -7 0 -16 -7 -19 -16 -9 -23 -8
-27 7 -21 6 2 17 -1 24 -8 9 -10 6 -16 -18 -25 -29 -12 -40 -40 -16 -40 16 -1
-31 -40 -48 -40 -18 0 -28 -32 -13 -42 10 -6 10 -8 -1 -8 -7 0 -24 -12 -37
-27 -28 -33 -42 -26 -15 8 26 33 58 110 37 89 -8 -8 -16 -22 -18 -30 -5 -23
-25 -40 -40 -35 -8 3 -29 -22 -57 -70 -24 -41 -48 -75 -52 -75 -5 0 -8 15 -7
32 3 27 -1 33 -17 33 -16 0 -21 -8 -25 -39 l-5 -40 -28 37 c-15 20 -35 37 -43
37 -8 0 -13 4 -10 9 3 5 -20 38 -52 73 -31 35 -72 82 -89 104 -18 21 -33 33
-33 25 0 -11 -5 -9 -21 5 l-22 19 17 -33 c10 -19 14 -41 11 -50 -6 -15 -8 -15
-15 3 -7 17 -9 17 -9 3 -1 -25 -43 -23 -59 2 -7 11 -19 20 -27 20 -8 0 -15 5
-15 10 0 6 7 10 16 10 8 0 12 5 9 11 -4 6 -13 8 -20 5 -17 -6 -40 20 -26 28 6
4 3 18 -6 37 -13 26 -13 35 -3 55 8 13 11 26 8 29 -3 3 -11 -8 -18 -25z"/>
<path d="M8155 4061 c-42 -11 -70 -30 -89 -63 -10 -15 -37 -47 -62 -70 -38
-35 -45 -48 -41 -71 2 -18 -1 -31 -10 -34 -7 -3 -13 -14 -13 -25 0 -30 -55
-107 -127 -175 l-65 -63 7 -55 c6 -51 4 -57 -24 -92 -17 -21 -46 -58 -66 -81
-35 -44 -43 -62 -27 -62 12 0 36 30 49 62 7 14 21 29 32 33 20 6 25 16 22 40
-2 21 67 8 127 -25 70 -37 108 -86 80 -104 -14 -8 -13 -12 1 -38 9 -15 19 -28
24 -28 4 0 7 -5 7 -11 0 -6 11 -25 26 -44 30 -40 16 -56 -23 -26 -33 27 -43
18 -15 -12 12 -13 22 -31 22 -40 0 -9 5 -19 11 -23 26 -16 71 -164 49 -164 -5
0 -10 4 -10 9 0 5 -6 11 -13 14 -10 4 -12 -3 -9 -25 4 -26 2 -29 -15 -24 -28
9 -73 -10 -73 -30 0 -9 10 -24 23 -34 39 -32 8 -35 -51 -5 -61 31 -191 54
-309 55 -58 0 -63 -2 -80 -30 -13 -24 -25 -30 -53 -32 -59 -3 -65 -3 -79 -12
-11 -7 -11 -10 3 -18 9 -5 14 -13 11 -19 -4 -5 0 -9 7 -10 7 0 -2 -5 -20 -10
-18 -5 -30 -14 -27 -19 8 -12 50 -13 91 -1 21 6 38 5 55 -5 13 -7 18 -13 11
-14 -10 0 -9 -4 3 -16 11 -12 19 -13 29 -5 7 6 16 8 19 4 4 -3 15 1 25 10 15
14 23 15 44 5 42 -20 29 -78 -17 -78 -13 0 -31 -3 -40 -6 -13 -5 -14 -9 -3
-15 10 -7 7 -11 -9 -15 -13 -4 -23 -11 -23 -18 0 -18 -76 -19 -93 -1 -9 8 -32
19 -53 23 -21 4 -39 13 -42 20 -2 7 2 10 10 7 15 -6 41 42 27 51 -5 3 -9 1 -9
-4 0 -6 -9 -8 -20 -5 -15 4 -20 0 -20 -13 0 -16 -2 -16 -15 3 -9 12 -21 20
-28 18 -16 -6 -29 4 -47 39 l-15 28 -13 -33 c-8 -18 -11 -45 -8 -60 3 -19 -1
-32 -14 -44 -11 -10 -20 -28 -20 -41 0 -13 -7 -39 -17 -58 -13 -29 -14 -38 -3
-51 7 -8 19 -15 26 -15 8 0 19 -9 26 -20 7 -11 21 -20 31 -20 19 0 53 -17 76
-39 16 -14 119 -9 183 10 31 9 142 26 237 35 69 7 192 60 227 98 17 19 45 37
63 41 21 4 31 12 27 20 -3 8 5 15 20 18 18 3 24 0 24 -13 0 -10 6 -23 14 -30
8 -6 12 -18 9 -26 -4 -10 0 -13 13 -8 16 5 17 4 4 -5 -13 -10 -13 -13 3 -25
17 -13 18 -26 14 -118 -3 -57 -2 -85 2 -63 l7 40 8 -35 c5 -19 9 -75 8 -124 0
-49 4 -100 9 -114 l10 -25 16 23 c10 14 16 38 14 58 -2 21 1 32 7 28 5 -3 13
2 17 11 3 10 1 19 -4 21 -8 3 -8 10 -1 23 17 31 8 118 -12 125 -10 3 -18 15
-18 27 0 12 -6 34 -14 49 -16 31 -12 38 23 37 17 -1 20 -3 9 -6 -26 -7 -22
-23 6 -23 13 0 26 -7 30 -15 8 -23 29 -18 23 5 -8 32 7 23 28 -16 10 -19 27
-40 37 -45 10 -5 18 -21 18 -34 0 -17 9 -29 30 -40 17 -9 30 -21 29 -28 -3
-29 3 -37 26 -37 18 0 28 -7 35 -24 17 -45 80 -69 80 -31 0 7 13 18 29 24 15
7 33 23 39 37 7 13 20 24 30 24 11 0 28 11 38 25 10 14 24 25 30 25 13 0 48
37 50 53 3 33 5 37 19 37 15 0 80 34 105 55 8 7 25 16 37 19 12 4 51 26 85 50
66 44 174 96 202 96 20 0 56 30 56 48 0 9 -5 10 -19 3 -10 -6 -31 -10 -47 -9
-16 1 -39 -1 -51 -5 -16 -6 -24 -3 -31 10 -8 14 -4 24 19 44 16 15 29 23 29
19 0 -5 13 -11 29 -15 16 -3 32 -13 35 -22 5 -13 9 -14 19 -4 9 9 7 16 -9 29
-27 22 -36 46 -21 61 9 9 8 14 -3 21 -11 7 -11 10 -2 10 7 0 10 5 7 11 -5 7
-14 4 -26 -7 -18 -16 -19 -16 -19 4 0 13 6 22 15 22 8 0 15 5 15 10 0 6 -10
10 -22 10 l-23 1 23 19 c20 16 36 19 94 17 39 -2 72 -8 76 -14 4 -7 27 -15 50
-19 34 -5 42 -4 42 9 0 20 -17 31 -50 33 -14 0 -40 2 -58 2 -18 1 -31 6 -28
10 3 5 -4 16 -14 25 -16 13 -25 14 -50 6 -16 -6 -28 -14 -25 -18 2 -5 -9 -8
-25 -9 -17 0 -30 3 -30 8 0 12 -26 19 -49 13 -17 -4 -19 -8 -10 -19 9 -11 8
-14 -4 -14 -10 0 -14 -6 -11 -14 3 -8 12 -12 19 -9 8 2 20 1 26 -3 9 -5 5 -10
-12 -17 -14 -5 -19 -11 -11 -14 6 -3 12 -11 12 -18 0 -18 -60 -17 -67 2 -6 16
-30 17 -72 2 -23 -8 -29 -15 -22 -22 6 -6 11 -20 11 -30 0 -17 -2 -18 -17 -6
-12 10 -17 11 -20 2 -3 -8 -11 -7 -31 3 -15 8 -35 14 -46 14 -14 0 -17 6 -14
24 4 17 1 23 -9 19 -7 -3 -13 -12 -13 -19 0 -8 -13 -17 -30 -20 -20 -5 -30
-12 -30 -25 0 -13 5 -17 18 -12 12 4 14 3 7 -5 -7 -8 -21 -9 -40 -3 -30 8 -59
7 -123 -5 -29 -6 -33 -4 -30 12 2 10 16 21 36 26 30 8 45 28 21 28 -8 0 -7 5
1 15 11 13 10 19 -7 34 -19 18 -22 18 -99 -6 -144 -44 -239 -72 -263 -79 l-23
-6 18 31 c10 18 28 34 39 37 44 11 54 67 14 77 -12 3 -17 11 -13 20 9 24 -49
6 -60 -19 -8 -17 -75 -69 -81 -62 -1 2 2 73 7 158 8 136 12 361 7 386 -1 5 0
11 1 14 9 23 25 317 16 309 -4 -3 -7 -22 -8 -41 -1 -25 -7 -37 -25 -45 -12 -6
-23 -7 -23 -3 0 5 6 10 13 13 9 3 9 9 0 25 -7 12 -10 42 -8 74 6 68 -10 25
-20 -54 -8 -70 -23 -106 -46 -113 -10 -4 -19 -11 -19 -18 0 -7 -4 -6 -12 2
-10 11 -10 14 0 18 14 5 17 43 3 43 -5 0 -11 -7 -15 -15 -4 -12 -10 -13 -31
-3 -14 6 -25 15 -25 19 0 4 -9 11 -21 14 -17 6 -20 12 -15 38 4 17 12 35 19
40 8 6 6 7 -5 3 -12 -3 -18 0 -18 9 0 8 8 15 17 15 15 0 15 1 -1 13 -21 15
-19 58 3 65 9 3 12 0 8 -11 -7 -20 3 -30 18 -17 7 6 10 21 8 34 -4 17 -10 22
-24 19 -21 -6 -27 21 -9 32 8 5 7 12 -1 22 -10 12 -10 16 2 24 8 5 17 9 21 9
12 0 88 -160 91 -190 1 -16 7 -30 12 -32 20 -6 15 42 -9 95 -14 30 -26 58 -26
62 0 5 -12 21 -26 36 -21 22 -24 30 -15 47 14 27 14 35 -1 25 -7 -4 -22 -9
-33 -10 -16 -2 -15 2 10 22 17 14 33 25 38 25 4 0 7 8 7 18 0 10 11 29 25 42
20 19 27 21 40 10 13 -11 18 -10 29 5 10 13 20 16 42 11 l29 -6 -25 15 c-14 8
-27 14 -30 14 -3 -1 -18 -4 -35 -8z"/>
<path d="M7588 3239 c-33 -18 -61 -78 -55 -116 13 -75 98 -161 177 -178 19 -4
49 -19 65 -34 17 -15 50 -37 75 -50 l45 -24 -25 25 c-14 13 -29 22 -33 20 -5
-2 -11 5 -14 17 -3 12 -19 25 -39 31 -19 7 -34 17 -34 24 0 16 -47 38 -63 30
-7 -3 -4 1 6 9 18 15 24 43 7 32 -5 -3 -10 -2 -10 4 0 5 -8 12 -17 14 -16 4
-16 5 -1 6 9 0 29 6 44 11 26 10 26 11 8 25 -15 11 -16 14 -4 15 17 0 82 -41
120 -76 27 -25 80 -48 80 -35 0 7 -142 105 -185 126 -11 6 -21 21 -23 33 -4
26 -20 29 -29 6 -4 -10 1 -22 12 -30 17 -13 17 -14 -1 -20 -10 -4 -23 -9 -28
-12 -5 -3 -6 0 -3 5 8 13 -18 37 -31 29 -6 -3 -16 2 -23 11 -12 15 -12 16 4
10 19 -7 47 12 47 33 0 6 -6 18 -14 25 -12 12 -18 10 -40 -15 -30 -35 -46 -38
-46 -11 0 14 5 18 20 14 21 -6 34 14 28 41 -2 11 -8 12 -20 5z"/>
<path d="M5290 2081 c0 -11 -3 -27 -6 -36 -5 -12 -2 -16 10 -13 14 2 18 -6 21
-39 2 -24 -1 -45 -6 -49 -5 -3 -5 -12 -1 -22 5 -9 6 -28 1 -42 -7 -25 -7 -24
-9 5 -1 18 -4 23 -7 13 -2 -10 -9 -18 -15 -18 -7 0 -8 -20 -4 -60 5 -40 3 -60
-4 -60 -5 0 -10 7 -10 15 0 8 -4 15 -9 15 -17 0 -23 -21 -10 -36 17 -21 10
-23 -41 -13 -94 21 -129 25 -124 17 10 -15 -13 -8 -36 12 -25 22 -26 22 -55
11 -19 -8 -19 -8 3 -15 27 -9 29 -27 3 -43 -23 -14 -83 -2 -106 21 -22 22 -28
20 -13 -4 7 -11 21 -23 30 -26 16 -5 62 -52 70 -72 1 -5 16 -12 31 -16 16 -4
26 -3 23 2 -8 13 35 49 59 51 11 1 38 1 60 2 l40 0 -25 19 c-24 19 -24 20 -4
20 23 0 60 -46 56 -67 -2 -8 3 -10 13 -7 16 7 21 -11 6 -21 -17 -10 -44 -106
-33 -117 6 -6 8 -17 5 -24 -3 -8 0 -14 7 -14 7 0 10 -8 7 -20 -3 -11 -1 -18 4
-14 5 3 9 14 9 25 0 10 4 27 9 37 5 9 12 26 16 37 6 18 8 18 22 -8 12 -24 12
-34 2 -58 -6 -16 -14 -28 -16 -25 -3 2 -14 -5 -25 -16 -11 -11 -18 -21 -16
-22 1 -1 20 -11 41 -21 l39 -20 24 30 c21 27 24 40 24 116 0 56 -6 100 -16
124 -19 46 -7 58 46 50 19 -2 45 -5 58 -5 13 0 20 -4 17 -10 -9 -15 11 -12 24
4 9 11 6 16 -19 25 -17 5 -45 8 -61 4 -30 -6 -30 -5 -18 16 8 11 28 26 45 31
17 6 39 19 48 29 16 17 16 21 -1 57 -10 22 -22 42 -27 45 -10 8 -45 100 -56
149 -5 23 -8 28 -9 13 -1 -29 -17 -30 -26 -3 -4 11 -12 20 -18 19 -30 -4 -38
2 -32 21 4 11 2 20 -4 20 -6 0 -11 -9 -11 -19z"/>
<path d="M2435 1561 c7 -52 23 -102 44 -139 18 -33 5 -40 -24 -12 -24 23 -25
23 -25 3 0 -11 -9 -56 -19 -99 -27 -110 -36 -184 -22 -184 6 0 14 12 17 28 4
15 10 32 14 37 4 6 10 30 13 55 3 24 13 50 22 56 9 7 13 18 9 28 -3 9 -1 16 5
16 6 0 11 -7 11 -15 0 -14 29 -35 49 -35 18 0 31 37 36 102 6 82 -18 153 -40
118 -12 -19 -23 -10 -35 28 -12 36 -34 62 -53 62 -5 0 -6 -21 -2 -49z"/>
<path d="M2683 1114 c3 -11 7 -35 9 -54 3 -30 0 -35 -19 -38 -13 -2 -24 -9
-24 -15 -2 -24 2 -53 13 -79 10 -27 11 -27 33 -10 13 9 20 21 17 26 -3 5 0 6
5 3 11 -7 10 -84 -2 -95 -4 -4 -14 2 -22 13 -14 18 -15 16 -9 -33 6 -42 4 -53
-6 -48 -7 3 -21 9 -30 12 -12 4 -18 17 -18 35 0 42 -32 179 -40 174 -4 -3 -5
-25 -2 -50 3 -31 1 -45 -7 -45 -7 0 -10 8 -7 18 7 22 -17 58 -32 48 -27 -17
-2 -126 28 -126 17 0 20 -7 20 -41 0 -28 4 -38 12 -33 6 4 8 3 5 -4 -4 -5 -17
-8 -28 -5 -21 6 -22 4 -15 -68 7 -71 24 -108 44 -95 5 3 8 24 6 47 -3 32 -1
40 10 36 24 -9 39 18 24 43 -11 17 -11 22 2 30 8 5 20 10 25 10 6 0 3 -4 -5
-10 -12 -8 -12 -10 2 -15 9 -4 21 -20 27 -36 17 -49 35 -36 28 21 -7 54 9 71
19 20 9 -43 24 -27 24 26 0 29 -6 50 -18 62 -13 13 -16 26 -11 49 3 17 3 37
-2 44 -4 7 -3 23 2 36 5 13 5 22 1 19 -5 -3 -17 27 -27 65 -11 39 -24 73 -28
76 -5 3 -7 -3 -4 -13z"/>
<path d="M2362 1062 c-5 -16 -7 -46 -3 -68 4 -21 4 -54 0 -73 -4 -21 -3 -42 4
-53 10 -16 9 -22 -5 -32 -14 -10 -16 -19 -9 -44 5 -17 7 -33 4 -36 -3 -3 1
-16 10 -29 8 -13 13 -34 10 -48 -5 -31 21 -69 37 -53 8 8 9 38 3 103 -7 72 -6
91 4 91 7 0 13 5 13 11 0 6 -9 9 -20 6 -13 -3 -20 0 -20 10 0 8 8 17 18 20 10
2 23 13 30 24 14 22 9 24 -19 8 -19 -10 -20 -8 -15 23 11 58 11 62 2 105 -10
57 -31 73 -44 35z"/>
<path d="M5129 724 c-40 -20 -45 -21 -62 -6 -16 14 -20 12 -60 -30 -23 -25
-53 -49 -67 -53 -50 -15 -60 -33 -60 -107 0 -38 7 -84 15 -105 21 -49 19 -53
-17 -47 -74 12 -78 14 -78 37 0 12 -4 28 -9 35 -6 10 -10 7 -15 -13 -4 -14 -4
-31 -1 -38 4 -7 -1 -3 -11 8 l-17 20 8 -20 c20 -52 18 -76 -10 -105 -15 -16
-25 -34 -23 -41 2 -7 23 12 46 44 24 31 46 57 51 57 11 0 61 -50 61 -61 0 -13
58 -11 65 2 4 6 18 -5 33 -28 26 -38 26 -38 33 -13 4 17 1 29 -9 37 -11 9 -12
13 -3 13 7 0 9 5 6 10 -3 6 -15 10 -25 10 -14 0 -20 10 -25 43 -4 23 -19 70
-32 105 -30 75 -26 101 23 127 21 11 56 34 78 52 22 18 42 30 45 27 2 -2 -10
-24 -28 -49 -43 -60 -30 -76 20 -23 26 28 47 42 60 40 11 -2 18 2 17 9 -5 20
17 20 29 0 10 -16 7 -31 -18 -88 -17 -37 -35 -69 -40 -71 -5 -2 -9 -10 -9 -17
0 -7 -7 -15 -15 -19 -21 -8 -19 -19 9 -49 22 -23 22 -28 9 -46 -20 -30 -34
-26 -66 21 -23 32 -27 48 -23 73 4 18 2 43 -2 56 -9 22 -9 23 -19 4 -16 -31
-14 -96 4 -143 12 -32 25 -47 50 -57 37 -16 72 -78 73 -128 0 -24 -3 -27 -20
-22 -24 8 -25 3 -4 -37 9 -17 17 -49 19 -72 2 -23 4 -47 4 -53 1 -10 48 -13
200 -13 l199 0 5 28 c4 20 1 31 -14 41 -11 8 -19 25 -19 42 0 17 -10 38 -26
54 l-25 25 -26 -20 c-14 -11 -30 -20 -34 -20 -17 0 -9 22 14 40 15 12 22 29
22 52 0 27 4 34 23 36 35 5 64 79 61 160 -2 73 -12 112 -42 155 -14 21 -16 32
-9 39 18 18 39 -7 86 -107 38 -79 66 -122 66 -100 0 3 -27 59 -59 124 l-60
119 -83 11 c-46 7 -100 15 -121 18 -21 3 -53 16 -71 28 l-33 22 -44 -23z"/>
</g>
</svg>
