<?xml version="1.0" standalone="no"?>
<!DOCTYPE svg PUBLIC "-//W3C//DTD SVG 20010904//EN"
 "http://www.w3.org/TR/2001/REC-SVG-20010904/DTD/svg10.dtd">
<svg version="1.0" xmlns="http://www.w3.org/2000/svg"
 width="495.000000pt" height="504.000000pt" viewBox="0 0 495.000000 504.000000"
 preserveAspectRatio="xMidYMid meet">
<metadata>
Created by potrace 1.16, written by Peter Selinger 2001-2019
</metadata>
<g transform="translate(0.000000,504.000000) scale(0.100000,-0.100000)"
fill="#000000" stroke="none">
<path d="M3027 5034 c-4 -4 1 -19 10 -35 35 -60 -31 -78 -125 -34 -69 32 -85
31 -47 -1 58 -50 128 -75 196 -72 58 3 64 5 80 33 33 57 33 78 0 98 -28 16
-101 24 -114 11z"/>
<path d="M3325 5011 c-51 -14 -109 -41 -132 -63 -39 -37 -25 -41 31 -9 59 34
120 41 130 15 10 -25 7 -34 -9 -34 -8 0 -15 -6 -15 -14 0 -46 87 -62 134 -25
20 16 26 29 26 59 0 33 -5 42 -29 54 -37 20 -98 27 -136 17z"/>
<path d="M2680 4991 c-107 -23 -210 -101 -210 -159 l0 -27 33 37 c42 48 94 78
134 78 31 0 32 -1 30 -37 -2 -35 0 -38 27 -41 48 -6 97 8 122 33 66 66 -22
141 -136 116z"/>
<path d="M3555 4933 c46 -111 172 -173 351 -173 78 0 93 -3 109 -20 18 -20 18
-21 -10 -50 -16 -17 -32 -30 -37 -30 -5 0 -26 11 -46 25 -41 27 -190 80 -200
71 -7 -8 -6 -8 58 -29 185 -61 475 -246 612 -391 55 -58 87 -85 88 -74 0 11
12 21 33 26 45 11 46 41 5 88 -34 39 -97 73 -135 74 -36 0 -27 -16 15 -28 21
-7 45 -20 54 -29 13 -16 12 -20 -8 -41 l-22 -23 -66 68 c-41 41 -62 69 -54 72
23 7 48 34 48 51 0 9 -12 27 -26 41 l-26 24 -18 -22 c-10 -13 -22 -23 -27 -23
-5 0 -22 27 -38 60 -44 92 -56 74 -29 -43 l7 -29 -66 44 -66 43 33 6 c47 8 56
17 56 56 0 26 -8 43 -33 68 -28 28 -42 34 -101 40 -38 4 -92 5 -122 2 -50 -5
-69 3 -44 18 15 9 12 52 -5 84 -22 44 -116 71 -107 31 17 -73 18 -70 -29 -70
-39 0 -48 5 -101 60 -32 33 -61 60 -63 60 -3 0 2 -17 10 -37z"/>
<path d="M2262 4884 c-29 -20 -28 -44 5 -70 24 -19 26 -23 13 -39 -15 -18 -45
-18 -204 1 -27 4 -58 1 -70 -4 -11 -6 -41 -16 -66 -23 -25 -6 -50 -15 -57 -21
-15 -12 -36 -79 -58 -179 -8 -42 -22 -84 -29 -94 -12 -16 -16 -15 -67 13 -102
58 -186 60 -229 5 -26 -34 -25 -64 6 -154 64 -186 -7 -321 -176 -336 -55 -5
-58 -4 -79 26 -27 38 -58 40 -71 6 -5 -14 -14 -25 -19 -25 -20 0 -45 65 -45
120 -2 106 67 185 154 178 25 -3 53 -8 62 -12 14 -6 18 -1 23 28 9 48 -1 85
-33 119 -70 73 -205 51 -260 -42 -25 -42 -27 -54 -26 -151 0 -91 3 -112 26
-162 15 -31 45 -77 67 -101 23 -24 41 -49 41 -55 0 -6 8 -25 17 -42 13 -24 38
-42 88 -66 l70 -33 -57 -1 c-55 0 -58 1 -74 35 -21 45 -84 102 -143 129 -36
16 -66 21 -134 21 -87 0 -89 0 -118 -33 -74 -82 1 -210 117 -200 24 2 43 1 42
-2 -28 -54 -88 -131 -112 -141 -20 -9 -41 -32 -58 -64 -32 -59 -70 -95 -102
-95 -23 0 -56 28 -56 46 0 6 -6 18 -13 27 -10 15 -17 16 -47 6 -71 -24 -100
-82 -70 -140 15 -26 62 -49 105 -49 40 0 46 -16 11 -30 -38 -14 -102 8 -136
47 -26 29 -30 42 -30 89 0 63 20 117 58 157 30 32 73 57 97 57 14 0 14 -3 0
-30 -20 -39 -19 -57 4 -70 40 -21 91 -12 124 22 l32 32 -39 7 c-38 6 -60 25
-49 42 3 5 31 7 62 4 31 -3 65 -2 76 2 22 9 29 7 -114 32 -72 12 -133 33 -173
61 -19 13 -29 33 -37 69 -15 68 -30 96 -42 78 -5 -8 -9 -28 -9 -45 0 -16 -6
-39 -14 -49 -13 -19 -16 -18 -50 20 -20 21 -36 44 -36 51 0 23 30 43 75 49 54
9 69 24 56 56 -25 58 -78 81 -136 59 -93 -35 -112 -148 -37 -212 34 -29 56
-86 41 -105 -9 -10 -6 -18 12 -33 32 -26 63 -25 106 5 20 13 41 21 46 18 5 -3
30 -11 55 -17 l46 -12 -69 -33 c-52 -24 -87 -33 -135 -36 -36 -1 -81 -6 -101
-10 -27 -5 -40 -3 -52 10 -21 20 -22 35 -2 35 22 0 19 53 -3 73 -23 21 -110
23 -137 3 -14 -10 -19 -25 -18 -56 3 -77 59 -113 175 -114 83 -1 87 -10 23
-41 -38 -17 -44 -35 -20 -55 21 -17 8 -33 -21 -26 -28 7 -33 -14 -8 -38 23
-24 74 -21 74 3 0 13 8 21 22 23 19 2 24 11 30 52 4 33 16 58 34 77 38 40 44
36 27 -13 -11 -31 -14 -69 -10 -135 l4 -92 -39 20 c-46 23 -105 23 -99 -1 9
-31 3 -60 -19 -90 -19 -26 -20 -34 -9 -41 18 -11 23 -11 53 3 14 6 31 26 38
44 6 18 15 31 20 28 15 -10 8 -43 -17 -72 -14 -17 -25 -33 -25 -36 0 -12 72
-6 100 9 26 13 30 21 30 55 0 42 14 54 25 21 9 -28 58 -44 116 -39 86 9 134
64 93 109 -9 10 -15 21 -13 22 40 32 103 77 108 77 3 0 4 -23 3 -51 -5 -62 10
-100 54 -139 163 -143 419 52 426 326 2 56 2 56 20 32 9 -12 21 -41 25 -63 7
-31 14 -41 31 -43 13 -2 29 1 35 7 10 8 13 -29 12 -172 0 -100 4 -215 8 -256
9 -84 55 -270 86 -349 134 -339 404 -617 804 -828 56 -29 97 -54 91 -54 -19 0
-236 113 -302 159 -145 98 -322 267 -451 428 -19 24 -36 41 -38 39 -2 -1 1
-34 7 -73 16 -114 -13 -236 -68 -286 -11 -10 -37 -20 -58 -24 l-39 -6 46 49
c55 58 68 80 61 106 -4 16 -8 13 -26 -18 -11 -21 -46 -57 -76 -81 l-55 -42
-22 25 c-34 37 -30 54 12 54 120 0 194 111 183 271 -5 58 -3 67 9 58 20 -17
29 -2 11 18 -9 10 -27 41 -42 70 -14 28 -29 54 -33 56 -5 3 -9 -22 -10 -54 -4
-95 -50 -181 -115 -215 -51 -26 -89 -14 -91 30 -2 23 -5 26 -27 21 -37 -8 -70
-51 -70 -89 0 -43 47 -135 76 -148 53 -24 16 -68 -104 -124 -170 -78 -202 -96
-253 -142 -64 -58 -100 -128 -107 -209 -5 -62 -5 -63 -31 -57 -40 10 -71 32
-71 52 0 10 8 41 17 68 22 64 94 136 201 198 45 26 82 50 82 52 0 8 -133 -47
-203 -83 -83 -43 -178 -132 -201 -188 -20 -47 -21 -141 -2 -187 12 -29 22 -36
64 -47 61 -15 76 -8 116 56 l28 44 54 -51 c59 -56 81 -61 161 -34 70 23 83 43
83 125 0 59 -2 69 -17 69 -10 0 -27 -7 -37 -15 -28 -21 -63 -19 -76 4 -15 29
-12 98 6 136 34 72 177 175 243 175 19 0 20 -3 10 -22 -6 -12 -31 -42 -54 -67
-56 -61 -67 -85 -67 -141 0 -61 23 -103 68 -125 65 -31 167 3 199 65 19 36 19
100 2 124 -12 17 -16 17 -43 3 -18 -9 -36 -12 -44 -7 -17 11 -15 64 3 90 14
20 15 20 26 -8 13 -32 60 -58 121 -68 39 -6 39 -7 18 -24 -19 -15 -20 -20 -9
-47 7 -17 27 -45 46 -63 l34 -33 -28 -23 c-41 -34 -74 -118 -68 -167 15 -109
136 -167 254 -122 90 35 174 135 208 248 20 68 20 67 -24 67 -22 0 -43 5 -46
10 -4 6 15 10 51 10 107 0 168 58 169 160 0 94 -70 168 -151 158 -27 -3 -29
-6 -26 -40 3 -36 -11 -78 -26 -78 -4 0 -7 35 -7 78 0 71 -4 83 -41 154 l-41
77 41 -36 c151 -131 199 -170 275 -220 46 -30 131 -78 188 -106 92 -44 147
-87 131 -103 -3 -2 -34 2 -69 11 -125 29 -240 12 -294 -45 -24 -25 -29 -39
-30 -81 0 -47 3 -54 38 -84 47 -40 49 -55 3 -20 -22 16 -42 45 -52 73 -10 26
-21 51 -25 56 -12 14 -49 -32 -49 -63 0 -56 -11 -89 -29 -84 -11 2 -24 -10
-39 -37 -27 -48 -68 -79 -197 -151 -88 -48 -158 -109 -192 -165 -11 -18 -11
-18 -6 4 3 12 1 22 -5 22 -6 0 -16 -19 -22 -42 -28 -115 -72 -153 -175 -153
-79 0 -94 -10 -95 -62 0 -25 -3 -30 -18 -26 -11 2 -36 -7 -57 -22 -32 -21 -40
-23 -47 -11 -11 19 -25 130 -38 297 -5 75 -15 152 -22 170 -14 43 -44 86 -68
99 -17 9 -16 5 5 -32 18 -31 25 -58 25 -98 0 -68 -19 -100 -61 -100 -24 0 -29
4 -29 25 0 19 -5 25 -21 25 -53 0 -89 -50 -89 -126 0 -39 5 -51 34 -80 30 -30
40 -34 86 -34 46 0 54 3 85 37 19 21 37 34 40 31 4 -3 -1 -27 -9 -53 -29 -85
-40 -175 -27 -224 19 -66 49 -91 112 -91 45 0 55 4 85 34 26 26 34 42 34 70 0
20 2 36 5 36 2 0 19 -9 37 -20 18 -11 44 -20 57 -20 66 0 141 94 162 204 9 44
14 54 21 42 6 -11 4 -33 -6 -63 -20 -58 -21 -127 -2 -142 17 -14 141 -4 155
13 5 6 11 20 13 30 2 16 -7 23 -47 34 -87 25 -102 52 -25 44 60 -6 127 17 175
59 29 26 37 28 60 19 38 -14 58 -6 101 43 l37 42 -7 -64 c-8 -79 -39 -140 -86
-163 -41 -21 -54 -14 -21 11 37 28 22 51 -34 51 -59 0 -83 -13 -100 -55 -36
-86 50 -175 140 -145 40 13 62 42 95 122 13 32 25 56 28 54 2 -3 -1 -29 -8
-59 -15 -75 -59 -134 -121 -160 -26 -12 -49 -27 -49 -34 0 -27 25 -64 48 -70
21 -5 31 1 55 30 16 21 32 37 36 37 4 0 13 -24 20 -53 14 -62 50 -103 98 -113
25 -5 46 1 98 31 42 23 75 35 90 33 18 -4 27 2 40 26 9 17 15 44 13 60 -3 28
-6 30 -48 30 -38 1 -45 4 -48 22 -4 31 34 71 97 104 32 15 63 36 71 45 12 15
11 16 -16 9 -155 -37 -265 -89 -302 -145 l-23 -34 27 -22 c32 -25 27 -38 -9
-29 -32 8 -37 23 -26 77 20 90 23 142 9 137 -8 -2 -18 -17 -23 -34 -16 -54
-17 -57 -22 -52 -5 5 19 124 31 158 4 10 11 1 19 -25 18 -51 40 -67 90 -63 32
2 40 7 45 28 4 15 12 23 21 21 75 -20 168 -6 238 37 l28 17 -73 0 c-44 1 -79
6 -86 13 -9 9 -7 12 13 12 22 0 20 2 -11 18 -21 10 -48 38 -66 67 -18 28 -46
65 -63 84 -30 31 -35 33 -82 29 -27 -3 -52 -8 -55 -11 -4 -3 -9 -26 -11 -49
-4 -38 -1 -48 25 -76 23 -25 38 -32 66 -32 33 0 36 2 30 24 -10 40 12 38 64
-6 28 -24 49 -44 48 -46 -2 -1 -15 2 -30 8 -37 14 -76 13 -77 -2 -1 -7 0 -23
1 -35 1 -16 -6 -24 -25 -29 -14 -3 -27 -5 -29 -3 -1 2 -15 25 -30 52 -15 26
-33 47 -40 47 -8 0 -18 23 -26 63 -6 34 -16 69 -21 79 -7 13 -1 21 28 38 l37
22 -47 26 c-33 18 -52 37 -64 64 -17 38 -19 39 -58 33 -21 -3 -41 -8 -43 -10
-8 -8 11 -26 49 -45 33 -17 39 -25 39 -53 0 -48 -21 -82 -50 -82 -22 0 -25 4
-25 35 0 31 -3 35 -27 38 -22 3 -32 -4 -50 -32 -24 -37 -66 -62 -79 -49 -21
21 38 136 87 167 13 9 53 43 89 77 55 52 65 58 65 39 0 -32 46 -119 83 -159
40 -42 120 -81 168 -81 47 0 99 35 122 82 23 48 15 76 -29 94 -30 12 -37 12
-57 0 -34 -22 -89 -29 -134 -17 -46 13 -93 46 -93 66 0 12 6 12 35 -1 52 -22
140 -19 165 6 26 26 25 48 -2 60 -17 6 -19 9 -6 9 14 1 16 7 12 31 -18 89 81
150 245 150 l59 0 93 -92 c90 -88 92 -90 44 -63 -27 16 -70 42 -95 57 -53 34
-129 58 -180 58 -20 0 -56 -10 -80 -22 -53 -27 -69 -69 -50 -130 17 -59 80
-89 80 -39 0 25 48 66 94 81 70 22 193 -7 245 -59 34 -34 24 -41 -24 -20 -107
47 -249 31 -275 -31 -17 -41 3 -99 39 -113 24 -9 26 -13 26 -75 0 -64 1 -67
34 -89 72 -49 185 -19 240 64 47 70 49 103 16 187 -7 15 -5 17 13 11 27 -8 28
0 2 33 -25 31 -13 47 24 32 101 -38 226 28 226 119 0 20 -6 44 -12 52 -14 17
-161 44 -179 34 -6 -4 -7 -19 -4 -36 6 -24 3 -29 -19 -35 -36 -9 -84 2 -126
28 -48 29 -23 34 40 7 28 -12 54 -18 58 -15 15 16 -52 57 -132 81 -77 24 -117
47 -103 61 3 3 42 -6 87 -20 44 -14 95 -26 113 -25 28 1 26 3 -23 19 -78 26
-44 24 91 -5 219 -46 505 -52 699 -14 40 8 55 8 58 0 5 -14 39 -15 47 -1 3 6
-2 10 -12 11 -10 0 11 9 47 18 319 87 574 233 796 456 163 165 275 339 390
609 21 49 40 84 42 78 8 -26 20 -9 26 41 17 121 18 137 10 137 -5 0 -9 87 -10
193 -1 206 -16 310 -71 476 -176 537 -662 945 -1278 1073 -97 20 -139 23 -352
23 -134 0 -238 2 -233 3 21 7 9 17 -24 19 -19 2 -38 -2 -41 -7 -4 -6 6 -10 21
-10 46 0 22 -9 -83 -30 -221 -44 -452 -140 -643 -268 -201 -134 -435 -385
-546 -587 l-39 -70 -3 44 c-2 31 2 49 14 60 15 15 16 14 5 -6 -13 -26 -14 -43
-2 -43 5 0 11 11 15 24 3 13 38 68 77 122 39 54 77 112 85 127 26 49 8 40 -26
-13 -41 -64 -80 -89 -80 -52 0 10 -18 49 -41 86 -22 37 -39 69 -37 71 2 2 28
-2 58 -9 53 -12 54 -13 33 -26 -35 -22 -28 -29 19 -18 53 11 101 47 141 104
31 44 47 55 47 32 0 -7 4 -20 10 -28 7 -11 22 -1 77 51 151 145 381 276 623
354 106 35 122 47 37 29 -152 -31 -359 -135 -557 -280 -79 -57 -140 -94 -156
-94 -11 0 6 83 27 126 31 65 88 80 89 23 0 -9 6 -22 14 -28 12 -10 21 -6 47
17 27 24 33 37 37 85 2 31 -1 70 -6 87 -11 30 -10 31 11 24 119 -38 236 -45
288 -18 38 19 63 73 50 107 -23 59 -109 87 -159 51z m1116 -99 c387 -51 708
-202 963 -454 327 -324 500 -851 425 -1301 -67 -405 -303 -767 -659 -1011
-406 -279 -923 -367 -1437 -245 -503 119 -885 405 -1090 815 -74 149 -132 334
-148 475 -15 128 -6 375 16 478 122 562 587 1042 1152 1191 237 62 545 83 778
52z m-1949 -1071 c-16 -49 -33 -116 -37 -149 -7 -55 -9 -58 -20 -37 -7 13 -19
53 -26 90 -8 37 -17 75 -21 84 -5 14 3 22 39 40 28 13 46 29 46 39 0 14 33 30
47 24 2 -1 -11 -42 -28 -91z m-179 -13 c0 -5 -9 -13 -20 -16 -18 -6 -20 -11
-13 -43 18 -86 1 -155 -56 -215 -41 -44 -80 -60 -146 -60 -80 0 -120 21 -129
68 -6 31 -15 40 -38 36 -11 -2 -10 6 7 40 18 34 31 31 40 -10 18 -82 136 -114
224 -60 60 36 90 120 58 163 -13 17 -15 17 -45 2 -17 -9 -41 -16 -52 -16 -18
0 -21 5 -18 32 5 51 52 74 176 87 6 0 12 -3 12 -8z"/>
<path d="M2905 4735 c-121 -16 -176 -28 -275 -60 -316 -101 -632 -311 -821
-546 -217 -269 -319 -553 -319 -889 0 -532 296 -1002 800 -1268 296 -156 665
-227 998 -192 341 37 639 160 895 368 236 192 437 497 507 770 28 112 30 126
37 253 19 365 -119 747 -380 1057 -304 360 -916 575 -1442 507z m353 -15 c237
-26 418 -78 617 -176 229 -113 391 -247 541 -447 133 -177 218 -364 261 -578
24 -120 24 -403 -1 -519 -59 -284 -186 -511 -405 -730 -287 -286 -617 -436
-1034 -470 -228 -19 -502 14 -697 82 -236 83 -472 236 -634 412 -198 214 -335
481 -380 742 -21 115 -21 332 0 449 74 429 361 806 794 1043 278 151 634 224
938 192z"/>
<path d="M3010 4684 c-14 -2 -65 -9 -115 -15 -263 -32 -519 -125 -735 -267
-115 -76 -298 -260 -379 -381 -160 -241 -228 -447 -238 -726 -9 -245 39 -464
147 -675 202 -393 580 -668 1050 -765 396 -82 756 -38 1100 135 289 146 558
401 693 660 224 428 194 942 -79 1353 -233 349 -605 583 -1054 662 -84 15
-342 28 -390 19z m225 -35 c434 -37 843 -224 1033 -473 25 -33 81 -103 124
-153 88 -105 134 -190 183 -336 121 -365 75 -750 -132 -1098 -131 -221 -366
-444 -587 -556 -124 -63 -319 -124 -514 -160 -136 -25 -398 -22 -537 6 -312
63 -594 211 -811 426 -258 255 -389 517 -424 847 -22 209 25 443 134 659 60
119 97 175 196 298 244 303 630 500 1060 539 134 13 142 13 275 1z"/>
<path d="M1463 4719 c-69 -20 -98 -112 -49 -158 27 -26 85 -38 113 -23 11 6
25 29 31 50 7 22 20 43 29 46 31 12 81 -15 128 -70 26 -30 49 -53 52 -50 9 8
-76 124 -114 155 -36 30 -112 62 -142 60 -9 0 -30 -5 -48 -10z"/>
<path d="M1437 4483 c-19 -22 -33 -78 -42 -164 -8 -82 -32 -123 -80 -139 -45
-15 -67 -1 -47 30 20 33 -8 37 -35 4 -59 -75 8 -174 119 -174 48 0 100 27 118
61 18 34 14 133 -9 243 l-22 99 27 29 c26 26 26 28 7 28 -11 0 -27 -8 -36 -17z"/>
<path d="M4573 4216 c2 -47 -1 -62 -10 -59 -7 3 -13 2 -13 -1 0 -13 39 -82 64
-111 28 -35 45 -30 18 6 -10 13 -22 32 -25 43 -7 18 -6 18 17 2 51 -33 86 -17
86 39 0 33 -22 48 -55 35 -35 -13 -41 -8 -49 37 -17 95 -36 100 -33 9z"/>
<path d="M817 4185 c-9 -9 -17 -27 -17 -40 0 -54 74 -90 103 -51 14 19 16 19
58 3 49 -19 57 -16 41 18 -27 58 -150 105 -185 70z"/>
<path d="M687 4049 c-96 -23 -157 -75 -164 -141 -9 -79 63 -148 154 -148 68 0
75 6 52 43 -33 54 -21 114 33 164 54 51 162 69 222 38 30 -16 30 -16 11 5 -39
43 -203 64 -308 39z"/>
<path d="M48 3394 c-15 -8 -32 -23 -38 -34 -23 -44 -2 -100 39 -100 14 0 17 6
13 30 -5 34 16 64 49 73 17 5 18 3 4 -16 -22 -32 -19 -84 5 -97 26 -14 40 -6
33 20 -4 14 6 30 36 56 45 41 45 54 -1 54 -26 0 -29 2 -18 15 11 13 5 15 -41
15 -30 -1 -66 -7 -81 -16z"/>
<path d="M1327 3348 c-9 -7 -28 -39 -41 -70 -25 -56 -27 -58 -83 -73 -32 -9
-80 -23 -108 -30 -75 -21 -95 -39 -95 -85 0 -103 142 -152 233 -80 l25 20 7
-29 c7 -34 28 -44 82 -39 37 3 38 2 44 -37 4 -22 12 -53 18 -69 17 -43 7 -42
-35 4 -58 64 -124 91 -124 51 0 -10 -9 -50 -21 -87 -17 -56 -30 -78 -71 -117
-34 -33 -56 -47 -71 -45 -20 3 -22 8 -19 52 l2 49 -37 -6 c-22 -4 -49 -19 -68
-37 -25 -26 -30 -38 -30 -81 0 -46 4 -54 37 -85 32 -29 45 -34 85 -34 114 0
152 63 217 353 4 15 10 27 15 27 4 0 25 -17 46 -37 72 -71 95 -165 54 -217
-26 -34 -40 -33 -61 4 -22 38 -37 38 -73 0 -24 -25 -29 -39 -29 -72 1 -35 8
-48 38 -75 30 -28 43 -33 84 -33 63 0 87 18 127 100 29 61 31 71 19 88 -8 11
-21 51 -30 89 -8 37 -21 75 -29 83 -7 8 -20 60 -29 115 -9 55 -23 134 -30 175
l-14 75 -1 -62 c-1 -53 -4 -63 -18 -63 -10 0 -29 -3 -41 -7 -24 -6 -24 -6 -8
25 9 17 21 55 26 84 6 29 14 64 17 78 l6 25 7 -25 c7 -22 8 -20 9 13 1 26 -3
36 -10 31 -8 -5 -10 4 -7 30 2 20 3 36 3 36 -1 0 -9 -6 -18 -12z"/>
<path d="M100 3167 c-13 -28 -21 -32 -57 -35 -24 -2 -43 -7 -43 -12 0 -46 53
-54 92 -15 l25 25 44 -19 c24 -11 67 -23 95 -26 48 -7 51 -6 57 16 8 29 2 33
-93 63 -41 14 -82 27 -90 30 -10 4 -20 -5 -30 -27z"/>
<path d="M389 3114 c-32 -6 -49 -40 -49 -100 0 -59 40 -104 93 -104 31 0 36 4
42 29 15 70 51 63 173 -32 83 -65 143 -96 181 -97 19 0 12 6 -27 26 -41 20
-70 48 -131 123 -94 116 -139 150 -207 155 -27 2 -61 2 -75 0z"/>
<path d="M904 3111 c-17 -4 -51 -22 -76 -39 -35 -24 -47 -39 -52 -68 -23 -118
68 -206 214 -206 102 0 142 26 234 150 5 8 -10 4 -33 -9 -88 -46 -193 -32
-225 29 -14 27 -14 35 0 81 21 72 13 79 -62 62z"/>
<path d="M110 3096 c0 -7 -7 -16 -15 -20 -22 -8 -18 -36 5 -36 19 0 19 0 -1
-34 -16 -28 -18 -38 -8 -60 10 -21 19 -26 51 -26 44 0 47 10 18 58 -11 18 -20
38 -19 45 0 6 5 2 11 -10 9 -18 56 -38 66 -28 2 2 -2 21 -9 43 -9 30 -16 38
-29 35 -10 -3 -20 2 -23 11 -3 8 -15 20 -26 26 -17 8 -21 8 -21 -4z"/>
<path d="M4741 2758 c-39 -103 -127 -267 -199 -368 -65 -91 -277 -316 -335
-353 -16 -11 -26 -22 -23 -25 4 -3 12 0 18 6 20 20 30 13 14 -10 -22 -31 -20
-38 8 -38 39 0 56 -11 56 -35 0 -37 -31 -55 -121 -66 -46 -6 -92 -15 -101 -20
-10 -5 -37 -9 -60 -9 -53 0 -114 -28 -149 -66 -35 -39 -101 -154 -88 -154 11
0 69 60 69 72 0 15 64 48 92 48 23 0 27 -5 30 -32 3 -30 6 -33 40 -36 73 -6
116 83 72 146 l-16 23 38 -8 c107 -22 227 9 284 74 36 40 39 83 10 131 -17 28
-25 32 -62 32 l-42 0 110 113 c167 170 270 318 338 488 31 77 52 149 44 149
-2 0 -14 -28 -27 -62z"/>
<path d="M460 2682 c-32 -16 -35 -20 -33 -60 4 -112 117 -204 247 -201 47 1
48 2 16 8 -78 16 -140 69 -140 120 0 33 7 42 53 70 21 13 36 28 34 35 -5 18
-69 46 -107 46 -19 0 -51 -8 -70 -18z"/>
<path d="M758 2614 c-52 -28 -64 -91 -28 -149 31 -50 79 -68 161 -63 54 4 78
12 117 37 27 17 57 40 66 50 16 18 16 18 -28 4 -115 -38 -230 35 -186 118 10
17 7 19 -32 19 -24 -1 -55 -7 -70 -16z"/>
<path d="M1095 2475 c-57 -52 -80 -66 -120 -75 -101 -21 -212 -86 -240 -140
-25 -49 -19 -88 19 -126 27 -27 42 -34 73 -34 47 0 89 26 73 45 -21 25 -29 74
-19 111 10 36 67 107 100 125 16 8 16 4 -4 -38 -16 -36 -21 -67 -21 -128 0
-119 35 -173 118 -182 43 -5 48 -3 85 34 41 41 59 92 47 137 -8 30 -52 64 -92
68 -27 3 -29 1 -28 -29 2 -44 -23 -44 -41 1 -23 54 -7 94 77 205 39 52 60 93
46 91 -2 -1 -34 -30 -73 -65z"/>
<path d="M4680 2503 c-50 -19 -69 -73 -25 -73 39 0 31 -33 -15 -70 -23 -18
-40 -34 -38 -35 11 -11 102 21 128 45 25 23 30 36 30 74 0 41 -3 48 -26 56
-28 11 -32 11 -54 3z"/>
<path d="M393 2433 c-25 -5 -73 -57 -73 -79 0 -25 46 -62 85 -70 56 -10 147 1
193 25 23 12 42 22 42 24 0 1 -37 2 -81 2 -66 0 -84 3 -92 17 -9 13 -7 22 8
38 11 12 15 24 9 29 -12 12 -63 20 -91 14z"/>
<path d="M745 2350 c-72 -35 -195 -156 -225 -221 -47 -106 -8 -184 105 -209
92 -21 175 26 175 99 0 36 -1 37 -35 33 -51 -6 -81 4 -104 36 -31 44 -32 75
-4 132 26 52 80 103 148 138 64 33 10 26 -60 -8z"/>
<path d="M4498 2273 c-46 -50 -61 -92 -65 -183 -3 -88 8 -87 21 2 11 76 78
129 92 73 4 -18 13 -25 29 -25 37 0 55 26 55 80 0 45 -3 51 -30 65 -43 22 -73
18 -102 -12z"/>
<path d="M384 1836 c-35 -16 -74 -61 -74 -86 0 -27 48 -69 87 -76 66 -12 176
40 222 105 28 39 27 60 -1 34 -32 -28 -66 -45 -110 -53 -47 -9 -62 6 -56 55 3
30 1 35 -17 35 -11 -1 -34 -7 -51 -14z"/>
<path d="M1423 1744 c-2 -52 -31 -97 -91 -141 -58 -42 -102 -86 -102 -101 0
-23 -19 -3 -44 47 -49 95 -76 87 -35 -10 12 -27 20 -51 18 -52 -2 -1 -17 -9
-33 -17 -85 -44 -102 -169 -34 -246 28 -31 36 -35 70 -32 40 4 46 0 26 -20
-23 -23 -78 -14 -116 19 -35 31 -36 31 -45 11 -14 -30 0 -87 28 -121 31 -36
105 -56 173 -46 129 18 198 120 156 229 -3 8 4 16 14 18 25 7 36 55 23 91 -13
34 -38 35 -53 2 -6 -14 -14 -25 -18 -25 -3 0 -19 19 -34 42 -23 35 -25 43 -12
50 36 20 78 64 104 107 24 41 27 56 27 133 0 91 -19 144 -22 62z"/>
<path d="M3548 1684 c-33 -17 -36 -38 -8 -61 26 -22 25 -39 -1 -54 -33 -17
-86 -4 -147 36 -29 20 -57 34 -60 30 -15 -15 33 -75 81 -101 67 -36 179 -45
237 -19 54 24 76 71 56 118 -7 19 -24 42 -37 51 -29 20 -85 20 -121 0z"/>
<path d="M508 1637 c-63 -112 -78 -205 -41 -255 17 -24 28 -27 82 -30 76 -4
91 7 91 62 0 59 -9 69 -49 53 -30 -11 -34 -10 -52 13 -31 41 -34 68 -10 117
39 80 21 116 -21 40z"/>
<path d="M3250 1634 c0 -39 -12 -67 -43 -101 -28 -31 -46 -29 -58 7 -13 35
-35 39 -72 10 -59 -47 -54 -127 12 -183 134 -112 329 137 214 273 -34 41 -53
39 -53 -6z"/>
<path d="M3026 1600 c-72 -63 -105 -195 -71 -283 13 -35 14 -49 6 -66 -14 -25
-19 -26 -42 -5 -23 21 -46 12 -59 -21 -18 -46 -12 -83 19 -117 24 -27 36 -32
89 -36 58 -4 63 -3 92 26 26 26 30 38 30 84 0 44 -9 72 -45 147 -58 119 -60
165 -12 214 19 18 48 39 66 47 29 12 34 11 55 -9 28 -27 46 -27 39 -1 -8 31
-43 50 -90 50 -33 0 -50 -7 -77 -30z"/>
<path d="M3802 1566 c-42 -14 -72 -32 -72 -45 0 -3 20 -5 45 -3 25 2 57 1 71
-2 24 -6 25 -10 20 -41 -6 -32 -5 -35 18 -35 27 0 96 54 96 74 0 7 -11 23 -24
35 -31 29 -95 36 -154 17z"/>
<path d="M3380 1458 c0 -15 16 -47 35 -72 35 -46 43 -66 26 -66 -5 0 -12 -12
-16 -27 -4 -16 -34 -54 -67 -86 -33 -32 -58 -60 -56 -62 2 -3 20 0 39 5 49 14
114 72 132 119 l16 39 41 -20 c80 -40 246 -32 270 13 14 26 12 76 -4 108 -17
32 -54 51 -99 51 -51 0 -58 -9 -45 -59 13 -50 4 -61 -49 -61 -38 0 -38 -1 -18
36 21 40 19 59 -9 73 -19 11 -33 10 -80 -5 l-56 -18 -30 29 -30 29 0 -26z"/>
<path d="M2803 1419 c-17 -5 -43 -23 -57 -40 -50 -59 -27 -198 45 -270 51 -51
64 -49 34 4 -51 88 -17 181 64 175 35 -3 36 -2 39 32 2 26 -4 45 -25 72 -29
39 -45 43 -100 27z"/>
<path d="M3331 1353 c-13 -34 -61 -73 -92 -73 -9 0 -24 11 -33 25 -22 34 -36
31 -68 -12 -34 -45 -35 -77 -3 -108 33 -34 92 -33 156 2 81 44 113 124 71 178
l-19 23 -12 -35z"/>
<path d="M756 1320 c-164 -110 -254 -275 -221 -402 21 -84 94 -137 188 -138
94 0 147 50 147 138 0 54 0 54 -27 48 -70 -18 -79 -17 -104 3 -96 75 -73 230
52 345 33 31 56 56 50 56 -5 0 -43 -23 -85 -50z"/>
<path d="M2280 1221 c-42 -13 -69 -34 -81 -63 -9 -22 -7 -33 11 -66 39 -69
138 -117 226 -110 l43 3 -64 -62 c-89 -86 -110 -129 -110 -223 0 -64 5 -83 28
-123 44 -75 117 -99 171 -56 36 29 33 56 -13 99 -64 58 -76 119 -43 215 27 78
112 214 144 231 52 27 98 82 98 117 l0 32 -19 -31 c-43 -70 -127 -109 -222
-102 -48 4 -65 10 -90 34 -27 26 -30 33 -24 72 7 46 0 50 -55 33z"/>
<path d="M3130 1119 c0 -89 -91 -144 -193 -119 -25 7 -55 21 -66 31 l-21 20 1
-64 c2 -128 -90 -227 -211 -227 -41 0 -112 29 -126 51 -12 20 -33 -32 -34 -81
0 -57 27 -112 60 -121 44 -12 139 -9 173 4 37 16 103 85 119 125 25 65 39 132
39 196 l-1 69 23 -20 c48 -45 88 -58 177 -58 71 0 91 4 121 22 56 35 73 88 44
142 -14 28 -25 36 -77 51 -26 8 -28 7 -28 -21z"/>
<path d="M2670 1109 c-7 -11 -9 -32 -6 -45 8 -29 44 -32 80 -8 23 14 25 14 31
-5 13 -41 -53 -121 -100 -121 -31 0 -49 24 -41 55 8 30 -7 32 -60 10 -74 -31
-81 -145 -10 -179 44 -21 54 -20 119 4 77 29 134 94 138 156 4 62 -11 94 -59
125 -54 34 -77 36 -92 8z"/>
<path d="M2922 848 c7 -27 7 -68 2 -108 l-9 -65 -47 3 c-29 2 -49 -1 -54 -9
-10 -17 -7 -75 6 -115 20 -61 111 -56 150 8 18 28 21 46 18 128 -2 79 -7 104
-28 145 -33 64 -51 70 -38 13z"/>
<path d="M1350 821 c0 -6 -56 -38 -125 -70 -98 -47 -127 -66 -140 -90 -8 -17
-15 -35 -15 -41 0 -7 -7 -27 -16 -46 -12 -25 -14 -45 -9 -72 4 -20 8 -57 9
-82 1 -40 -2 -45 -22 -48 -13 -2 -30 2 -38 9 -24 20 -45 -10 -47 -66 -2 -48
-2 -48 41 -64 39 -14 46 -14 70 0 15 8 33 28 41 44 13 26 12 40 -4 115 -30
144 -30 144 -9 136 62 -26 78 -25 157 9 12 5 17 3 17 -7 0 -23 33 -48 63 -48
16 0 34 10 47 28 l22 27 -42 3 c-36 3 -41 6 -38 25 2 18 -2 22 -25 22 -20 0
-32 8 -47 32 l-19 32 80 66 c44 37 78 72 76 78 -5 15 -27 21 -27 8z"/>
<path d="M1464 806 c-68 -30 -83 -95 -34 -148 l29 -33 1 29 c0 37 58 93 106
102 44 8 92 -1 116 -23 10 -9 20 -14 23 -12 9 10 -22 55 -54 76 -40 27 -135
31 -187 9z"/>
<path d="M3020 796 c0 -2 7 -21 16 -41 8 -21 16 -67 16 -102 1 -129 -79 -223
-189 -223 -39 0 -43 2 -43 25 0 29 -21 33 -44 9 -11 -10 -16 -34 -16 -74 0
-64 9 -75 83 -99 58 -19 102 -7 152 43 59 59 86 135 92 256 4 81 2 104 -17
153 -12 33 -28 57 -36 57 -8 0 -14 -2 -14 -4z"/>
<path d="M838 738 c-4 -41 -32 -48 -88 -23 -20 9 -48 15 -61 13 l-24 -4 25
-11 c14 -6 49 -27 79 -47 38 -26 64 -36 91 -36 41 0 70 20 70 48 0 21 -36 82
-49 82 -5 0 -16 3 -24 6 -12 4 -16 -3 -19 -28z"/>
<path d="M604 720 c26 -119 27 -138 12 -174 -22 -52 -96 -65 -96 -17 0 18 -3
19 -30 9 -88 -30 -93 -150 -8 -194 77 -40 176 5 199 91 23 85 -11 245 -63 292
-19 17 -19 17 -14 -7z"/>
<path d="M1528 709 c-22 -9 -28 -19 -35 -62 -8 -51 -9 -52 -48 -57 -58 -7 -57
-25 13 -162 2 -5 -17 -8 -42 -8 -36 0 -52 -6 -75 -27 -16 -16 -32 -39 -36 -52
-7 -22 -6 -23 36 -16 62 10 104 32 117 61 l12 24 45 -35 c64 -48 146 -61 153
-23 2 10 -17 28 -57 52 -33 20 -71 50 -85 67 -26 30 -35 69 -16 69 5 0 35 26
67 59 47 47 66 60 102 66 l44 7 -31 20 c-36 23 -125 32 -164 17z"/>
<path d="M705 660 c21 -41 45 -146 45 -200 0 -119 -120 -221 -194 -165 -11 8
-30 15 -43 15 -23 0 -24 -2 -21 -72 l3 -73 45 -23 c147 -74 253 39 251 268 0
88 -22 178 -57 238 -28 47 -53 58 -29 12z"/>
<path d="M1664 610 c-42 -10 -85 -41 -107 -79 -14 -24 -15 -32 -5 -35 95 -30
208 21 208 93 0 29 -3 31 -32 30 -18 -1 -47 -4 -64 -9z"/>
<path d="M2269 573 c-4 -245 -55 -362 -164 -380 -30 -5 -36 -2 -45 21 -12 34
-22 33 -54 -5 -20 -23 -26 -42 -26 -76 0 -41 5 -51 44 -89 38 -39 49 -44 87
-44 117 0 174 105 178 327 l1 42 26 -24 c43 -40 137 -32 184 15 27 27 26 71
-4 99 l-24 23 -13 -24 c-16 -31 -26 -36 -55 -30 -34 6 -69 52 -95 123 -12 33
-26 62 -30 65 -5 3 -9 -16 -10 -43z"/>
<path d="M1780 590 c0 -41 -37 -86 -89 -109 -28 -11 -56 -21 -65 -21 -25 0
-27 -18 -4 -39 62 -58 189 -15 218 75 13 39 -1 78 -37 102 -22 13 -23 13 -23
-8z"/>
<path d="M1865 548 c1 -13 6 -40 10 -61 6 -32 4 -42 -16 -64 -35 -36 -76 -55
-125 -56 -49 0 -56 -13 -23 -43 28 -25 121 -25 178 0 33 15 43 26 51 56 10 38
5 89 -13 125 -12 25 -48 65 -58 65 -4 0 -6 -10 -4 -22z"/>
<path d="M2195 518 c-25 -54 -71 -81 -91 -53 -7 10 -15 22 -17 28 -6 20 -58
-4 -77 -36 -35 -57 -17 -147 32 -161 73 -19 130 10 169 87 27 51 36 136 17
160 -12 16 -15 14 -33 -25z"/>
</g>
</svg>
