<?xml version="1.0" standalone="no"?>
<!DOCTYPE svg PUBLIC "-//W3C//DTD SVG 20010904//EN"
 "http://www.w3.org/TR/2001/REC-SVG-20010904/DTD/svg10.dtd">
<svg version="1.0" xmlns="http://www.w3.org/2000/svg"
 width="236.000000pt" height="331.000000pt" viewBox="0 0 236.000000 331.000000"
 preserveAspectRatio="xMidYMid meet">
<metadata>
Created by potrace 1.16, written by Peter Selinger 2001-2019
</metadata>
<g transform="translate(0.000000,331.000000) scale(0.100000,-0.100000)"
fill="#000000" stroke="none">
<path d="M1057 3154 c-34 -18 -43 -40 -52 -126 l-7 -66 -29 10 c-19 6 -32 20
-39 44 -13 38 -28 49 -82 59 -36 7 -37 6 -47 -32 -6 -21 -11 -58 -11 -83 l0
-45 -22 33 c-23 36 -53 52 -99 52 -28 0 -29 -2 -29 -42 0 -67 26 -161 66 -240
59 -117 197 -238 317 -279 45 -15 53 -22 60 -51 5 -18 16 -41 24 -50 13 -15
14 -39 8 -165 -4 -81 -4 -145 -1 -142 4 3 9 70 12 148 5 116 4 145 -9 164 -22
34 -26 73 -7 68 8 -2 30 -6 48 -9 35 -5 40 -18 17 -48 -11 -15 -14 -56 -15
-192 0 -98 4 -171 9 -168 5 3 7 79 5 168 -2 128 0 166 12 182 8 11 14 27 14
36 0 11 22 20 80 32 100 21 166 51 288 131 165 108 220 180 230 294 7 90 -19
110 -99 78 -14 -5 -16 1 -15 36 0 31 -4 45 -17 53 -10 6 -41 26 -69 44 -27 17
-56 32 -63 32 -18 0 -82 -91 -122 -175 -19 -38 -31 -61 -27 -50 4 11 9 65 11
121 7 124 -1 144 -57 144 -31 0 -43 5 -56 25 -15 24 -21 25 -108 25 -62 -1
-100 -6 -119 -16z"/>
<path d="M1823 2513 c-11 -29 3 -142 20 -161 16 -18 15 -21 -14 -65 -32 -48
-119 -150 -124 -145 -8 8 37 213 49 227 17 20 10 41 -14 41 -24 0 -35 -17 -20
-34 8 -11 5 -44 -11 -132 -18 -96 -27 -124 -48 -147 -39 -42 -145 -116 -236
-164 -44 -23 -76 -43 -72 -43 21 0 188 94 253 143 l71 54 164 16 c90 9 175 15
189 14 16 -1 26 4 28 16 5 23 -25 33 -46 14 -9 -8 -39 -18 -65 -21 l-48 -7 36
69 c21 43 43 72 55 75 20 5 28 41 11 51 -17 11 -41 -6 -41 -28 0 -13 -16 -55
-36 -94 -39 -78 -29 -72 -166 -87 -62 -7 -71 0 -36 31 11 10 48 53 81 94 33
41 64 74 69 73 4 -2 8 1 8 6 0 5 18 11 41 15 51 8 87 26 119 61 21 22 22 28
10 35 -11 7 -26 -1 -55 -29 -35 -34 -75 -58 -75 -46 0 2 10 15 23 28 75 80 79
87 67 102 -18 22 -22 19 -53 -29 -45 -72 -63 -77 -28 -7 33 63 34 91 7 91 -19
0 -29 -19 -51 -102 -10 -38 -22 -65 -28 -61 -5 3 -8 38 -5 83 4 62 2 77 -10
77 -8 0 -16 -6 -19 -14z"/>
<path d="M660 2455 c0 -19 58 -90 109 -135 34 -29 61 -57 61 -61 0 -5 -44 -10
-97 -12 l-98 -3 113 0 113 -1 50 -54 c27 -29 49 -49 49 -43 0 5 -16 25 -35 44
-28 27 -35 42 -35 71 0 21 -4 41 -10 44 -5 3 -10 16 -11 28 0 12 -9 40 -20 62
l-19 40 6 -55 c3 -30 14 -74 24 -98 l19 -43 -28 21 c-16 11 -43 45 -60 75 -18
31 -36 53 -41 50 -6 -3 -10 -1 -10 5 0 12 -32 43 -62 61 -10 5 -18 7 -18 4z"/>
<path d="M426 2421 c-4 -5 -2 -21 4 -36 5 -14 10 -42 10 -62 0 -29 -2 -33 -14
-24 -8 6 -23 34 -35 61 -24 56 -36 67 -56 50 -13 -11 -12 -16 5 -39 11 -14 30
-39 42 -56 l22 -30 -24 20 c-14 11 -37 31 -53 44 -20 18 -30 22 -38 14 -8 -8
-2 -20 22 -42 19 -17 42 -33 52 -36 9 -4 17 -10 17 -15 0 -13 -41 1 -79 26
-33 22 -51 23 -51 3 0 -17 83 -49 128 -49 40 0 49 -6 148 -100 102 -96 124
-112 124 -90 0 6 -5 10 -11 10 -5 0 -7 4 -4 10 3 5 -1 22 -10 37 -15 26 -14
16 1 -22 13 -33 -16 -11 -99 74 -48 49 -87 91 -87 93 0 3 7 19 16 37 13 27 14
39 4 81 -11 48 -22 61 -34 41z"/>
<path d="M1495 2270 c-49 -44 -92 -80 -96 -80 -4 0 0 19 8 42 8 23 12 57 11
77 l-4 36 -17 -38 c-10 -21 -23 -64 -28 -94 -10 -51 -42 -113 -60 -113 -4 0
-1 17 6 38 18 52 30 150 17 137 -14 -14 -52 -141 -52 -175 0 -32 -89 -169
-106 -163 -7 2 -11 -38 -12 -124 -1 -93 2 -123 9 -110 6 10 8 25 5 33 -8 21
119 101 206 130 38 13 97 26 133 30 l64 7 66 -69 c36 -38 65 -65 65 -61 0 4
-27 35 -60 68 l-60 62 48 -6 c26 -4 58 -9 72 -12 15 -3 11 1 -10 9 -19 8 -55
15 -79 15 -39 1 -42 3 -30 18 13 15 12 15 -11 1 -14 -9 -52 -20 -85 -23 -77
-10 -163 -42 -248 -94 l-67 -41 0 65 c0 96 11 112 79 120 60 7 150 32 165 46
21 20 -82 3 -166 -26 -21 -8 -38 -10 -38 -7 0 4 16 27 35 52 l34 45 69 -3 c38
-2 89 2 113 9 l44 12 -30 9 c-29 9 -103 5 -155 -8 l-25 -7 25 27 c24 24 33 27
130 31 57 2 108 10 114 16 11 10 -94 6 -179 -7 -28 -4 -26 -1 30 48 83 73 171
158 165 158 -3 0 -45 -36 -95 -80z"/>
<path d="M974 2230 c2 -41 7 -84 12 -94 6 -15 4 -17 -7 -11 -21 14 -219 19
-219 6 0 -18 82 -33 155 -29 63 4 72 2 86 -16 33 -44 54 -80 42 -73 -21 13
-200 20 -207 8 -4 -6 0 -11 11 -12 10 0 32 -3 48 -5 17 -3 61 -6 100 -7 l69
-2 23 -40 c12 -22 23 -57 23 -77 l0 -37 -68 19 c-89 25 -188 70 -289 132 -82
50 -83 50 -172 52 l-90 1 -56 55 c-30 30 -54 61 -52 70 1 9 -7 16 -20 18 -18
3 -23 -2 -23 -17 0 -12 6 -21 15 -21 19 0 96 -81 89 -92 -7 -12 -98 -10 -130
2 -33 13 -59 -5 -44 -30 7 -12 12 -12 34 -1 19 11 60 12 193 6 l168 -7 100
-57 c108 -61 223 -112 297 -131 37 -10 47 -17 51 -37 3 -15 0 -22 -7 -19 -6 3
-48 21 -94 41 -84 37 -201 64 -280 65 -23 0 -54 7 -68 16 -13 9 -27 14 -30 11
-3 -3 4 -8 15 -12 31 -10 25 -20 -11 -23 -40 -3 -158 -43 -158 -53 0 -4 20 1
44 12 24 10 66 22 93 25 l48 7 -40 -44 -40 -43 53 48 54 48 71 -6 c107 -11
188 -32 271 -71 88 -42 82 -21 85 -288 1 -106 4 -223 7 -262 l4 -70 -41 45
c-23 25 -52 61 -66 81 l-24 36 24 84 c13 46 27 104 30 129 l5 45 -20 -45 c-21
-49 -49 -176 -40 -185 3 -3 1 -5 -5 -5 -6 0 -16 14 -23 30 -7 17 -15 28 -18
26 -9 -9 77 -143 126 -198 l49 -53 -5 -94 -5 -93 -25 33 c-15 19 -54 63 -89
99 -56 60 -102 135 -143 238 -7 18 -15 31 -17 29 -2 -3 12 -40 31 -83 19 -43
33 -80 31 -82 -2 -3 -23 11 -47 30 -135 108 -348 225 -348 191 0 -15 103 -72
147 -81 24 -6 66 -24 93 -42 52 -33 61 -49 19 -30 -34 14 -154 40 -143 31 8
-8 146 -51 204 -65 14 -3 50 -28 80 -56 l55 -50 -49 20 c-27 11 -52 18 -55 14
-10 -10 62 -62 125 -90 46 -20 69 -39 97 -77 36 -48 37 -52 37 -136 0 -47 3
-133 5 -191 4 -70 2 -98 -4 -85 -5 11 -10 36 -10 55 -2 50 -25 120 -67 200
-54 103 -234 271 -384 360 -28 17 -54 30 -59 30 -13 0 -1 -101 20 -170 39
-125 144 -291 219 -348 14 -10 69 -36 123 -56 109 -42 164 -82 169 -124 5 -35
-1 1107 -6 1306 -3 85 -7 156 -10 160 -3 3 -6 -15 -6 -39 -1 -38 -2 -41 -12
-24 -6 11 -28 45 -48 76 -33 49 -38 64 -42 130 -2 41 -12 90 -21 109 l-17 35
4 -75z"/>
<path d="M1715 1410 c-27 -11 -62 -27 -77 -35 -16 -9 -28 -13 -28 -8 -1 4 -11
-4 -23 -18 -27 -32 -104 -90 -91 -69 5 9 21 33 36 55 14 22 29 51 33 63 7 23
6 23 -17 8 -42 -28 -108 -125 -108 -160 0 -13 -111 -119 -117 -112 -2 1 8 29
21 62 31 78 41 112 28 99 -10 -10 -56 -141 -57 -160 0 -6 -30 -49 -65 -97
l-65 -87 -6 42 c-3 23 -6 -23 -7 -103 0 -80 3 -136 7 -126 4 11 6 53 4 93 l-4
74 55 72 c30 40 78 95 106 124 55 54 52 53 222 83 26 5 55 13 65 19 16 9 15
10 -7 10 -14 0 -63 -8 -110 -19 -46 -10 -86 -17 -88 -16 -7 7 159 118 189 126
36 10 155 76 164 90 9 14 -3 12 -60 -10z"/>
<path d="M1650 1166 c-258 -128 -395 -270 -441 -456 l-14 -55 -3 43 c-2 23 -7
42 -11 42 -4 0 -7 -72 -8 -160 0 -87 4 -157 9 -154 4 3 8 54 8 114 0 108 0
109 29 129 15 11 73 32 127 46 59 15 115 37 139 53 96 67 220 258 245 377 6
31 10 58 8 60 -2 2 -41 -16 -88 -39z"/>
<path d="M1770 1136 c0 -14 5 -26 10 -26 6 0 10 -6 10 -14 0 -8 12 -24 28 -35
15 -11 21 -21 14 -21 -7 0 -24 11 -37 25 -14 13 -25 20 -25 15 0 -15 53 -51
67 -46 18 7 17 3 -16 -63 -41 -80 -131 -191 -232 -284 -99 -92 -232 -164 -325
-178 l-59 -8 62 4 c49 2 81 12 145 44 109 54 242 91 345 96 82 3 218 33 276
60 39 18 23 16 -112 -20 -51 -14 -116 -25 -145 -25 l-51 0 79 35 c92 40 168
85 214 126 39 35 43 49 5 19 -112 -86 -279 -170 -420 -209 l-72 -20 104 105
c97 97 204 239 220 292 7 25 15 27 34 10 11 -10 13 -10 7 0 -4 6 -2 12 3 12 6
0 3 8 -6 18 -11 11 -21 14 -25 8 -17 -25 -78 37 -78 79 0 8 -4 17 -10 20 -6 4
-10 -5 -10 -19z"/>
<path d="M495 1005 c70 -115 252 -301 355 -362 45 -26 37 -37 -23 -30 -146 18
-293 76 -411 163 l-61 46 48 -46 c27 -25 83 -63 125 -83 l76 -38 -44 -3 c-25
-1 -76 6 -115 17 -89 25 -96 20 -11 -9 45 -15 86 -21 133 -20 40 1 106 -7 162
-19 52 -12 112 -21 135 -20 30 1 60 -8 111 -34 39 -19 89 -41 113 -48 35 -10
44 -18 49 -41 3 -16 8 -27 10 -24 3 2 2 18 -2 34 -5 23 -13 31 -38 36 -55 11
-209 92 -287 152 -101 76 -199 173 -267 264 -65 86 -84 108 -58 65z"/>
</g>
</svg>
