<?xml version="1.0" standalone="no"?>
<!DOCTYPE svg PUBLIC "-//W3C//DTD SVG 20010904//EN"
 "http://www.w3.org/TR/2001/REC-SVG-20010904/DTD/svg10.dtd">
 <svg id="svg-1" version="1.0" xmlns="http://www.w3.org/2000/svg"
  width="200.000000pt" height="200.000000pt" viewBox="0 0 800.000000 734.000000"
  preserveAspectRatio="xMidYMid meet">
 <g transform="translate(0.000000,734.000000) scale(0.100000,-0.100000)"
 fill="#000000" stroke="none">
 <path class="svg-1-path" d="M3400 7157 c0 -8 -8 -29 -17 -48 -19 -37 -32 -229 -16 -229 5 0 15 -16 22 -35 18 -51 54 -89 103 -110 24 -10 44 -20 46 -21 5 -3 -43 -74 -87 -130 -45 -56 -77 -123 -111 -229 -17 -54 -22 -92 -21 -166 1 -95 1 -96 -38 -156 -55 -85 -107 -140 -171 -181 -30 -19 -67 -49 -83 -66 -36 -38 -112 -151 -157 -231 -45 -81 -88 -131 -96 -111 -4 11 -11 13 -31 5 -32 -12 -33 -12 -34 9 0 14 -2 13 -11 -5 -15 -31 -38 -37 -39 -10 0 12 -7 45 -14 72 l-12 50 4 -75
 5 -75 -20 30 c-10 17 -30 39 -43 50 l-24 20 21 -25 c26 -30 47 -70 41 -76 -2 -2 -14 -1 -27 4 -15 6 -37 4 -63 -5 -21 -8 -59 -16 -83 -20 -24 -3 -44 -10 -44 -15 0 -6 32 -54 71 -107 40 -53 85 -123 100 -156 32 -67 71 -134 79 -135 3 0 35 60 72 133 37 72 106 203 154 289 l87 157 66 -25 c36 -14 98 -40 136 -59 39 -19 90 -36 116 -38 25 -2 51 -7 57 -11 6 -3 12 0 15 6 3 10 7 10 18 1 19 -16 41 -3 29 17 -15 23 -12 40 8 40 15 1 14 2 -3 12 -11 7 -26 17 -33 25
 -10 10 -9 13 10 17 85 18 129 29 125 32 -2 2 -28 0 -57 -6 -91 -17 -99 -14 -52 21 24 17 41 34 38 36 -3 3 -19 -6 -36 -21 -39 -32 -54 -33 -44 -3 4 12 7 27 6 32 -1 14 -44 159 -47 163 -5 5 -55 -28 -110 -74 -68 -55 -138 -102 -181 -120 l-36 -15 33 47 c19 25 81 90 138 143 201 186 247 235 294 316 66 112 62 148 -9 97 -71 -51 -68 -54 -61 34 9 118 70 279 132 345 25 27 51 62 56 78 l10 29 42 -19 c51 -23 105 -24 153 -4 20 8 40 13 44 10 14 -9 120 97 150 150 52
 91 32 94 -26 5 -38 -58 -61 -84 -72 -82 -10 2 -29 4 -44 5 -16 1 -28 3 -28 5 0 10 75 130 93 149 11 13 17 26 13 30 -9 9 -39 -27 -71 -87 -13 -25 -24 -38 -25 -30 0 10 -7 7 -21 -10 -17 -20 -19 -21 -13 -5 4 11 9 37 12 58 l4 38 -38 -26 c-32 -22 -45 -25 -83 -19 -25 4 -60 12 -78 19 -29 12 -33 12 -46 -8 -15 -22 -15 -21 -22 16 -8 42 -12 44 -32 20 -25 -31 -9 61 17 97 26 37 19 39 -13 4 l-25 -26 19 53 c10 30 18 68 18 84 -1 29 -1 29 -8 5 -32 -99 -45 -147 -46
 -157 0 -18 -5 -17 -46 2 l-37 18 24 86 c27 96 28 111 14 111 -5 0 -10 -6 -10 -13z"/>
 <path class="svg-1-path" d="M1787 4722 c-100 -38 -120 -43 -129 -31 -8 11 -9 10 -4 -5 14 -43 35 -187 37 -251 1 -57 -4 -80 -25 -125 -14 -30 -26 -61 -26 -68 0 -7 -5 -10 -10 -7 -12 7 -203 -99 -194 -108 3 -3 -3 -3 -15 0 -12 3 -21 1 -21 -6 0 -6 -6 -11 -13 -11 -8 0 -24 -9 -37 -20 -13 -11 -27 -20 -32 -20 -4 0 -8 -6 -8 -13 0 -8 -11 -19 -25 -25 -14 -7 -29 -20 -32 -29 -4 -10 -20 -28 -35 -41 -15 -13 -28 -30 -28 -37 0 -8 -13 -37 -30 -64 -16 -28 -25 -53 -20 -56 6 -3 0 -19 -11 -35
 -19 -25 -22 -44 -24 -172 -2 -78 -6 -151 -10 -160 -6 -15 -2 -18 27 -18 19 0 39 5 46 12 9 9 12 9 12 -1 0 -9 10 -12 30 -9 17 3 30 1 30 -4 0 -4 9 -8 20 -8 11 0 20 -4 20 -10 0 -5 13 -10 29 -10 16 0 31 -5 33 -11 2 -7 17 -7 48 0 31 7 47 7 51 -1 5 -7 20 -8 45 -2 22 4 46 8 54 7 16 -2 76 23 98 41 8 5 23 11 34 13 11 2 33 13 50 24 16 12 31 19 34 17 2 -3 -32 -59 -77 -126 l-81 -122 -121 -69 c-207 -118 -641 -354 -652 -354 -5 0 -111 30 -235 66 -252 74 -503 137
 -548 137 -38 0 -46 -27 -37 -126 l7 -72 37 -6 c21 -3 143 -40 272 -81 256 -83 516 -155 649 -180 47 -9 164 -20 260 -24 153 -7 203 -14 395 -55 121 -26 223 -50 228 -53 10 -6 37 16 37 31 0 20 -102 61 -315 126 -110 34 -266 83 -347 108 l-148 46 63 40 c34 22 166 108 293 192 l230 151 58 104 c56 99 170 273 219 332 l23 28 58 -27 c31 -14 76 -29 99 -32 23 -2 46 -11 50 -19 5 -8 56 -45  113 -83 120 -79 170 -94 304 -88 49 1 91 5 94 8 3 3 -6 80 -19 170 -14 91 -25
 169 -25 173 0 4 -9 3 -20 -3 -11 -6 -20 -8 -20 -6 0 3 15 13 33 22 78 41 228 146 260 185 20 23 44 60 52 83 l16 41 92 0 c66 0 106 5 142 19 28 11 52 22 55 26 3 3 22 16 43 29 20 12 37 26 37 30 0 4 11 14 25 21 13 7 22 17 19 22 -3 4 -1 8 4 8 5 0 15 12 22 28 8 15 20 34 26 42 25 31 42 107 43 193 0 49 3 97 6 108 5 16 1 18 -37 17 -24 0 -65 7 -92 16 -34 12 -71 15 -125 12 -114 -6 -111 -3 -110 -105 0 -92 -9 -151 -21 -132 -5 8 -20 6 -53 -8 -25 -11 -47 -16 -49
 -10 -2 5 -3 -35 -3 -88 0 -88 -21 -205 -32 -177 -5 15 -272 -90 -292 -114 -11 -15 -12 -6 -7 58 4 41 13 100 21 130 18 65 18 73 5 65 -13 -8 -90 54 -90 72 0 12 -3 11 -16 -1 -8 -9 -24 -16 -35 -16 -10 0 -19 -4 -19 -10 0 -5 7 -10 16 -10 14 0 14 -3 4 -15 -10 -13 -9 -15 9 -15 11 0 21 -4 21 -9 0 -5 9 -11 20 -14 17 -4 18 -8 7 -30 -7 -15 -22 -31 -35 -37 -30 -13 -19 -30 19 -30 18 0 28 -4 24 -10 -3 -5 -14 -10 -24 -10 -29 0 -43 -21 -23 -36 16 -12 16 -13 -3 -20
 -11 -4 -23 -12 -26 -17 -10 -14 -69 2 -69 19 0 8 -4 14 -10 14 -16 0 -12 -8 21 -50 21 -25 32 -52 35 -81 2 -24 2 -39 -1 -33 -7 15 -571 -210 -567 -226 9 -39 -112 82 -133 133 -25 62 -37 171 -26 232 13 69 38 112 94 161 23 20 33 32 22 26 -11 -5 -58 -18 -105 -27 -47 -10 -91 -23 -99 -29 -23 -18 -5 69 30 144 17 36 39 97 48 136 21 85 67 154 141 210 27 21 46 40 42 43 -16 13 -40 80 -35 100 3 12 1 21 -3 20 -5 0 -62 -21 -127 -47z"/>
 <path class="svg-1-path" d="M2556 4654 c8 -26 14 -51 14 -55 0 -13 -249 -151 -260 -144 -6 4 -17 1 -25 -5 -8 -6 -20 -8 -27 -4 -9 5 -9 3 1 -10 13 -15 15 -16 23 -2 11 19 28 21 28 3 0 -16 30 -19 48 -4 19 15 27 0 14 -28 -13 -29 -6 -32 26 -9 15 10 27 12 39 6 11 -6 24 -6 37 1 66 33 63 32 69 10 6 -28 24 22 32 93 6 47 14 66 40 94 37 39 70 94 43 73 -15 -13 -80 -1 -105 19 -8 6 -7 -6 3 -38z"/>
 <path class="svg-1-path" d="M2315 4360 c3 -9 -1 -24 -9 -35 -15 -20 -15 -19 -16 4 0 13 -3 22 -6 18 -4 -3 -6 -26 -6 -50 l1 -45 -82 -16 c-45 -9 -100 -18 -122 -19 -25 -2 -15 -4 25 -5 36 -1 83 -9 105 -17 22 -8 68 -14 103 -15 l62 0 0 -30 c0 -33 19 -40 41 -14 10 13 10 17 -1 24 -8 5 -18 6 -22 4 -4 -3 -8 -2 -8 2 0 13 53 64 67 64 7 0 13 5 13 10 0 21 2 25 15 40 12 14 12 16 -5 17 -33 3 -75 28 -74 44 1 11 -6 14 -22 11 -31 -6 -30 -20 1 -28 24 -6 25 -8 10 -24 -15 -16 -14 -18 9 -22
 14 -3 30 0 35 5 19 19 22 1 6 -31 -15 -30 -50 -51 -63 -38 -3 3 3 13 14 22 19 15 19 16 -1 9 -11 -4 -26 -7 -32 -6 -7 1 -22 2 -34 3 -20 2 -19 4 7 26 l29 24 -27 -5 c-33 -5 -33 -4 -11 34 14 23 15 31 5 41 -11 11 -12 10 -7 -2z"/>
 <path class="svg-1-path" d="M2924 3754 c-10 -44 -10 -46 19 -61 68 -35 237 -90 237 -77 0 21 -47 89 -82 118 -36 31 -117 66 -153 66 -6 0 -15 -21 -21 -46z"/>
 <path class="svg-1-path" d="M6452 3398 c-3 -65 -13 -74 -33 -29 -22 50 -34 55 -13 6 20 -48 18 -58 -5 -45 -11 5 -60 10 -110 10 -72 0 -91 -3 -91 -14 0 -8 22 -63 49 -123 69 -153 74 -177 62 -286 -6 -51 -13 -148 -17 -217 -7 -142 -25 -247 -49 -284 -9 -14 -55 -51 -101 -83 -84 -57 -84 -57 -84 -100 0 -52 -9 -56 129 50 110 86 135 116 145 178 5 31 19 53 59 92 128 127 279 236 421 302 106 50 154 63 160 43 2 -7 9 -32 15 -55 6 -22 27 -63 45 -90 19 -28 36 -60 38 -72 1 -12 8 -20
 13 -19 12 4 13 90 2 136 l-9 32 50 0 c33 0 54 5 63 16 11 13 9 14 -17 9 l-29 -6 23 19 c25 23 28 32 8 32 -7 0 -25 6 -40 13 l-26 14 26 12 c21 9 24 14 14 26 -6 7 -16 45 -21 84 -9 66 -8 72 15 109 14 22 31 42 38 45 37 15 -67 4 -115 -12 -55 -18 -56 -18 -46 0 5 11 8 19 5 19 -13 0 -86 -152 -87 -181 0 -28 -2 -31 -9 -14 -5 11 -9 40 -9 63 -1 28 -8 53 -21 69 -11 14 -20 34 -20 44 0 10 -4 21 -10 24 -6 4 -10 -17 -10 -57 0 -45 7 -77 24 -114 l24 -51 -67 4 c-69 5 -132 -6 -138 -23 -2 -6 9 -11 24 -11 16 0 49 -10 75 -22 l47 -22 -92 -47 c-81 -41 -211 -129 -371 -249 l-49 -37 7 80 c12 133 38 318 48 337 5 10 37 52 71 95 73 91 106 153 99 189 -2 6 2 14 8 18 21 13 9 25 -26 25 -29 0 -35 3 -30 16 4 11 -2 9 -22 -6 l-27 -22 -6 59 c-4 41 -6 47 -7 21z"/>
 <path class="svg-1-path" d="M3534 3372 c-11 -10 -33 -22 -49 -27 -17 -4 -37 -10 -45 -12 -8 -3 -24 -4 -35 -4 -10 0 -25 -5 -32 -10 -6 -6 -17 -8 -23 -4 -5 3 -25 -5 -42 -18 -18 -14 -38 -22 -45 -20 -7 2 -25 -8 -40 -24 -15 -15 -31 -28 -35 -28 -13 0 -55 -50 -62 -73 -4 -12 -11 -22 -16 -22 -5 0 -17 -14 -25 -30 -16 -31 -16 -31 29 -81 50 -55 78 -125 78 -195 0 -25 -2 -48 -5 -50 -2 -3 -26 0 -51 7 -26 6 -79 10 -119 7 -40 -2 -64 -3 -54 -1 21 5 22 19 1 31 -14 8 -14 13 -4 33 7 13
 -13 -4 -45 -39 -37 -40 -86 -79 -136 -108 -44 -25 -79 -48 -79 -50 0 -9 101 10 163 32 38 13 87 24 110 24 38 0 142 -25 190 -45 10 -4 17 -4 16 1 -4 16 34 84 47 84 18 0 50 46 118 168 32 56 60 102 63 102 6 0 -81 -160 -123 -227 l-34 -53 33 -16 c17 -9 55 -32 82 -52 37 -26 44 -29 28 -10 -13 13 -23 27 -23 31 0 10 52 8 110 -4 58 -12 61 -11 64 25 1 22 6 26 31 26 17 0 62 -12 100 -26 110 -40 103 -40 185 17 90 63 509 401 563 453 63 62 42 114 -21 54 -21 -19 -71
 -59 -112 -88 -41 -29 -118 -88 -170 -130 -122 -100 -162 -124 -290 -177 -58 -24 -115 -51 -127 -59 -26 -16 -30 -5 -11 29 15 28 18 53 23 160 2 48 0 87 -5 87 -5 0 -10 24 -12 53 -2 35 -7 51 -15 50 -7 -2 -12 0 -11 5 4 12 -34 102 -41 98 -4 -3 -17 24 -30 60 -24 68 -35 75 -67 46z"/>
 <path class="svg-1-path" d="M2115 3191 c-3 -5 -3 -16 1 -24 8 -23 10 -117 2 -117 -5 0 -8 -9 -8 -20 0 -11 -5 -20 -10 -20 -6 0 -8 -11 -4 -26 4 -16 2 -29 -6 -34 -9 -6 -10 -19 -2 -53 6 -32 6 -47 -1 -50 -8 -2 -7 -17 3 -48 7 -24 13 -50 11 -57 -1 -7 12 -35 28 -63 17 -27 31 -55 31 -61 0 -6 6 -19 14 -27 16 -18 65 -105 98 -173 13 -27 29 -48 35 -48 7 0 13 -8 13 -17 0 -10 4 -25 10 -33 7 -11 20 -3 67 42 84 79 151 112 233 112 47 0 78 -7 110 -22 28 -14 36 -16 20 -5 -14 10 -63 54
 -110 99 -61 58 -110 94 -174 128 -49 26 -96 44 -103 42 -20 -8 -16 6 18 58 16 27 28 55 25 63 -3 8 -1 11 5 8 5 -4 42 23 81 60 47 45 96 79 144 102 41 19 74 38 74 42 0 13 -19 35 -25 29 -4 -4 -17 5 -29 19 -13 14 -31 27 -42 28 -10 0 -40 14 -66 29 -26 15 -52 25 -57 21 -6 -3 -24 1 -40 10 -35 18 -71 20 -71 4 0 -8 -4 -8 -12 -2 -17 13 -108 15 -108 3 0 -5 -6 -8 -12 -6 -32 10 -138 15 -143 7z"/>
 <path class="svg-1-path" d="M4925 2397 c-27 -6 -52 -14 -55 -17 -3 -4 -30 -8 -60 -9 -30 -2 -56 -4 -58 -5 -1 -2 4 -27 12 -57 7 -30 10 -63 6 -74 -6 -19 -6 -45 3 -135 2 -19 10 -46 17 -60 8 -14 13 -30 12 -35 -1 -6 12 -25 28 -43 17 -18 30 -35 30 -38 0 -3 26 -36 58 -73 31 -37 64 -77 72 -89 8 -12 20 -22 27 -22 7 0 13 -4 13 -9 0 -14 -120 -22 -360 -24 -207 -2 -219 -1 -315 26 -88 24 -320 107 -428 152 -37 15 -41 14 -38 -17 1 -10 -13 -31 -31 -47 -25 -23 -30 -31 -18 -35 8 -3 56
 -19 105 -35 50 -16 162 -59 250 -96 148 -62 544 -205 625 -227 19 -5 101 -41 182 -81 l147 -72 -2 -150 -2 -150 36 -75 c20 -41 52 -92 70 -113 l34 -39 120 97 c163 132 153 122 130 140 -11 8 37 -15 108 -51 157 -79 232 -99 320 -84 43 8 71 8 90 1 35 -13 165 2 264 31 l72 21 -37 25 c-74 50 -82 58 -69 72 7 7 -11 -4 -39 -24 -75 -53 -228 -116 -210 -87 7 10 -225 191 -244 191 -42 0 51 48 165 85 39 13 65 24 59 24 -13 1 -7 85 8 114 6 12 5 17 -6 17 -8 0 -21 9 -29
 20 -15 22 -29 17 -20 -8 5 -11 2 -14 -10 -9 -20 7 -22 -4 -5 -21 9 -9 9 -12 0 -12 -8 0 -10 -9 -6 -25 6 -23 4 -25 -22 -22 -16 2 -37 7 -47 12 -26 11 -30 1 -12 -34 18 -35 7 -41 -20 -11 -21 24 -50 27 -41 5 6 -16 -15 -21 -28 -7 -4 4 -13 7 -19 7 -17 0 -34 54 -20 63 7 4 9 13 4 21 -6 9 -14 -1 -25 -31 -10 -24 -29 -55 -43 -70 l-25 -27 -87 68 c-184 144 -426 326 -431 324 -3 -2 -7 -30 -10 -63 l-5 -59 -105 50 c-115 55 -169 72 -290 90 -43 6 -87 18 -97 26 -16 12
 2 14 147 8 157 -6 218 0 357 30 14 3 31 21 43 44 25 50 109 124 184 161 72 36 157 41 221 11 36 -17 32 -10 -55 78 -74 76 -116 109 -190 151 -52 30 -96 55 -98 56 -4 2 38 68 66 103 16 20 18 28 9 43 -7 10 -17 18 -23 18 -6 0 -17 7 -24 15 -13 15 -95 56 -108 53 -4 -1 -20 4 -35 10 -16 7 -41 12 -55 11 -15 -1 -40 1 -57 4 -16 3 -52 0 -80 -6z"/>
 <path class="svg-1-path" d="M2899 2294 c17 -28 31 -60 31 -71 0 -28 27 -91 56 -128 13 -18 21 -34 18 -37 -9 -10 68 -28 131 -31 l40 -2 -17 33 c-13 27 -14 40 -6 64 8 24 8 32 -3 39 -16 10 -32 -22 -17 -32 14 -9 -9 -22 -24 -13 -8 5 -9 2 -5 -10 4 -10 7 -22 7 -27 0 -5 7 -9 15 -9 8 0 15 -4 15 -9 0 -12 -72 -11 -87 1 -21 17 -15 30 8 18 31 -17 34 -5 3 14 -14 10 -23 20 -20 23 3 3 1 14 -5 24 -12 23 -7 23 34 3 l32 -15 -27 25 -28 25 42 8 c23 5 43 14 44 21 1 7 0 8 -3 2 -2 -5 -17
 -10 -31 -10 l-27 1 25 14 c15 8 19 14 10 15 -8 0 -32 -11 -54 -23 l-38 -24 -66 71 c-36 39 -70 76 -75 81 -5 6 5 -13 22 -41z"/>
 <path class="svg-1-path" d="M2140 2210 c-59 -79 -86 -107 -92 -98 -5 8 -7 4 -3 -12 2 -14 9 -46 15 -72 5 -26 21 -72 34 -103 14 -30 21 -55 16 -55 -13 0 -43 -87 -37 -105 9 -21 -3 -19 -48 11 -61 41 -94 74 -132 132 -33 52 -34 52 -61 38 -15 -7 -66 -32 -113 -55 -81 -38 -167 -102 -162 -121 2 -5 -11 -20 -28 -34 -17 -15 -29 -31 -27 -38 3 -7 -2 -20 -11 -30 -8 -9 -16 -24 -18 -33 -2 -8 -4 -22 -6 -30 -2 -8 -9 -21 -15 -27 -7 -7 -12 -18 -12 -25 0 -7 -6 -13 -12 -13 -7 0 -21 -11
 -30 -24 -17 -24 -17 -24 31 -55 27 -18 62 -44 79 -59 49 -43 61 -52 72 -52 5 0 10 -6 10 -14 0 -14 29 -26 68 -26 12 0 22 -6 22 -14 0 -14 71 -29 153 -30 26 -1 47 -4 47 -7 0 -7 128 16 180 32 109 34 280 159 280 204 0 9 24 -18 53 -61 28 -43 59 -82 68 -88 13 -7 35 7 106 70 48 43 106 94 127 112 32 28 36 35 25 48 -11 13 34 -6 171 -74 35 -17 104 -107 95 -123 -3 -4 -21 -11 -41 -15 l-35 -6 7 -47 c10 -75 33 -170 48 -199 l14 -26 23 45 c23 43 28 107 17 212 -3
 28 1 30 82 61 54 20 85 37 85 46 0 23 15 29 47 18 16 -6 48 -8 71 -5 l42 6 38 -100 c21 -55 59 -129 83 -165 43 -63 45 -67 33 -102 -6 -20 -36 -81 -66 -135 -31 -54 -54 -99 -52 -101 13 -11 155 -24 171 -15 22 12 23 3 4 -34 -20 -38 -10 -34 14 6 l20 32 2 -60 2 -60 3 50 c5 60 17 76 38 49 8 -10 15 -14 15 -6 0 14 32 16 46 2 6 -6 10 -3 10 10 0 11 -4 20 -9 20 -5 0 -6 7 -3 16 4 9 1 24 -6 33 -20 27 7 -1 48 -49 60 -70 243 -232 254 -225 24 15 4 46 -86 135 -53 52
 -124 131 -158 175 -66 84 -212 299 -238 350 -13 25 -68 180 -68 191 0 1 25 11 55 20 30 10 55 22 55 28 0 6 -23 26 -51 44 -44 29 -49 35 -37 50 7 9 -9 -2 -37 -25 -48 -39 -125 -83 -173 -98 -16 -4 -27 -2 -35 7 -26 32 -247 179 -259 173 -7 -4 0 5 16 19 16 13 66 39 110 56 85 32 135 55 103 46 -15 -5 -16 0 -11 52 4 31 12 60 18 64 7 5 5 8 -5 8 -9 0 -22 7 -29 15 -16 20 -30 19 -30 -1 0 -11 -5 -14 -16 -10 -14 6 -15 4 -4 -10 11 -13 11 -17 1 -24 -9 -5 -10 -10 -2
 -14 6 -4 11 -14 11 -22 0 -15 -45 -15 -82 1 -23 9 -23 -8 -2 -40 20 -30 5 -33 -21 -5 -10 11 -24 20 -30 20 -7 0 -16 7 -19 16 -4 9 -9 14 -12 11 -3 -3 2 -16 11 -30 10 -15 12 -28 6 -31 -5 -4 -12 -2 -16 4 -3 5 -15 10 -26 10 -14 0 -21 9 -25 30 -7 34 -24 41 -24 10 0 -12 -18 -40 -41 -63 -22 -23 -38 -37 -35 -30 6 12 -114 101 -386 288 l-117 80 0 48 c-1 31 -6 49 -15 53 -7 3 -21 23 -31 45 -10 21 -21 39 -25 39 -3 0 -44 -50 -90 -110z"/>
 <path class="svg-1-path" d="M3186 2254 c-11 -8 -14 -14 -8 -14 7 0 12 -7 12 -15 0 -9 9 -15 23 -15 22 -1 22 -1 2 -16 -11 -8 -25 -12 -32 -10 -7 3 -13 3 -13 -1 0 -10 34 -32 51 -33 11 0 15 -8 14 -25 -2 -17 2 -25 12 -25 8 0 21 -6 29 -14 7 -8 19 -17 26 -20 10 -5 10 -7 0 -12 -6 -3 -10 -10 -7 -15 6 -9 90 21 128 46 18 11 31 12 57 5 19 -6 48 -10 64 -10 23 0 27 3 21 18 -5 9 -13 36 -19 59 l-10 42 -44 -47 c-24 -26 -41 -42 -38 -36 3 5 -49 37 -115 70 -67 32 -124 64 -127 71 -5 8 -12 8 -26 -3z"/>
 <path class="svg-1-path" d="M5776 2201 c-26 -27 -84 -68 -127 -92 l-80 -44 41 -3 c24 -2 69 6 107 19 85 28 181 23 271 -14 34 -14 60 -21 56 -16 -3 6 6 28 20 49 28 42 32 55 16 45 -5 -3 -10 -1 -10 4 0 6 -3 10 -7 9 -5 -1 -32 4 -61 10 -29 7 -81 12 -115 12 -36 0 -57 4 -49 9 10 6 10 10 -3 21 -9 7 -14 19 -11 27 8 20 4 17 -48 -36z"/>
 <path class="svg-1-path" d="M5748 1690 c10 -19 25 -61 31 -92 7 -31 25 -76 41 -99 16 -24 26 -47 24 -51 -3 -4 4 -8 15 -8 11 0 23 -5 26 -10 4 -6 11 -8 16 -4 5 3 15 1 22 -5 7 -5 29 -9 48 -8 l36 2 -13 37 c-8 23 -9 40 -3 43 5 4 7 11 4 16 -4 5 1 9 9 9 14 0 14 2 -1 19 -21 25 -33 18 -27 -15 4 -22 2 -26 -14 -22 -16 5 -18 1 -14 -16 3 -11 12 -26 20 -32 24 -18 -43 -24 -68 -7 -27 19 -26 37 1 23 31 -17 34 -5 4 14 -14 9 -23 21 -19 27 3 5 0 16 -6 24 -16 19 -7 19 33 -1 l32 -17 -24
 27 c-23 24 -23 26 -5 27 10 1 24 2 29 4 6 1 15 3 21 3 7 1 15 10 18 19 6 15 4 14 -14 -2 -15 -14 -23 -16 -32 -7 -9 9 -5 14 13 22 23 10 22 10 -5 5 -17 -4 -43 -16 -59 -27 -27 -20 -30 -20 -39 -4 -8 15 -78 98 -110 131 -5 6 -1 -6 10 -25z"/>
 <path class="svg-1-path" d="M6007 1675 c-5 -10 0 -15 13 -15 21 0 27 -15 10 -25 -12 -7 12 -35 30 -35 20 0 4 -25 -18 -28 -31 -5 -27 -18 9 -31 17 -6 28 -15 24 -21 -7 -11 49 -70 67 -70 7 0 6 -5 -2 -15 -7 -9 -11 -18 -8 -21 7 -6 108 31 132 49 15 11 28 11 73 -1 52 -13 101 -9 76 6 -15 9 -36 89 -27 105 3 6 -12 -9 -35 -35 l-41 -46 -123 70 c-67 39 -134 84 -148 100 -21 23 -28 26 -32 13z"/>
 <path class="svg-1-path" d="M6557 1035 l-38 -45 28 -11 c31 -12 543 -162 636 -187 54 -14 61 -19 98 -73 22 -33 65 -111 95 -174 30 -63 59 -117 63 -120 5 -3 16 6 24 18 8 13 38 48 66 79 35 38 52 66 54 87 2 27 4 28 19 15 9 -9 22 -29 28 -45 7 -16 15 -28 17 -25 2 2 -5 22 -17 45 -11 23 -17 41 -12 41 20 0 132 -81 158 -114 16 -20 33 -36 38 -36 6 0 -3 13 -18 29 -20 21 -24 30 -14 34 8 4 7 6 -5 6 -10 1 -46 24 -82 52 -68 55 -75 78 -21 80 28 1 29 2 7 8 l-24 6 33 29 c27 22 31 29
 19 37 -8 5 -22 9 -31 9 -10 0 -18 5 -18 10 0 6 -11 10 -24 10 -14 0 -28 5 -31 10 -3 6 -19 10 -36 10 -16 0 -29 3 -29 8 0 4 -64 7 -143 7 -135 1 -146 2 -227 32 -47 18 -150 51 -230 73 -91 25 -180 58 -239 87 -52 27 -97 49 -100 50 -3 1 -23 -18 -44 -42z"/>
 <path class="svg-1-path" d="M4356 899 c-22 -5 -64 -20 -95 -33 -31 -14 -72 -27 -92 -31 -38 -6 -104 -44 -104 -60 0 -5 75 -35 166 -68 154 -54 166 -60 161 -80 -3 -12 -9 -28  -15 -34 -6 -9 -6 -13 2 -13 6 0 11 -7 11 -15 0 -8 7 -15 15 -15 8 0 15 -4 15  -10 0 -5 -8 -10 -17 -10 -15 0 -16 -2 -3 -10 9 -5 17 -5 20 0 3 5 39 16 80 25 134 27 125 23 104 47 -40 44 -74 61 -98 50 -22 -10 -23 -9 -16 27 6 36 6 37 -52 70 -32 19 -58 37 -57 40 0 3 41 26 90 51 l90 45 -33 14 c-42 18 -122 23 -172 10z"/>
 <path class="svg-1-path" d="M5753 758 c-31 -10 -32 -11 -27 -62 7 -63 41 -207 52 -218 5 -5 21 16 36 46 32 62 38 144 17 209 -13 40 -23 42 -78 25z"/>
 <path class="svg-1-path" d="M4297 344 c5 -13 2 -15 -14 -10 -17 5 -23 1 -32 -25 -13 -38 -15 -82 -2 -75 4 3 39 -20 77 -52 38 -31 75 -58 82 -59 7 -2 12 9 12 30 0 33 0 33 48 34 26 0 67 5 90 12 39 11 43 15 37 34 -3 12 -7 27 -7 32 -1 6 -26 -2 -56 -17 -30 -16 -70 -28 -88 -28 -31 0 -33 3 -48 53 -17 59 -46 93 -63 76 -8 -8 -13 -8 -17 0 -11 17 -26 13 -19 -5z"/>
 </g>
 </svg>
