<?xml version="1.0" standalone="no"?>
<!DOCTYPE svg PUBLIC "-//W3C//DTD SVG 20010904//EN"
 "http://www.w3.org/TR/2001/REC-SVG-20010904/DTD/svg10.dtd">
<svg version="1.0" xmlns="http://www.w3.org/2000/svg"
 width="486.000000pt" height="513.000000pt" viewBox="0 0 406.000000 480.000000"
 preserveAspectRatio="xMidYMid meet">
<metadata>
Created by potrace 1.16, written by Peter Selinger 2001-2019
</metadata>
<g transform="translate(0.000000,513.000000) scale(0.100000,-0.100000)"
fill="#000000" stroke="none">
<path d="M2514 4460 c-102 -41 -173 -127 -194 -239 -25 -131 56 -281 181 -335
32 -14 19 -15 -176 -16 l-210 0 -100 100 c-55 55 -106 100 -115 100 -8 0 30
-45 85 -100 55 -55 93 -100 85 -100 -9 0 -60 45 -115 100 -60 60 -108 100
-120 100 -14 0 7 -27 80 -100 55 -55 93 -100 85 -100 -8 0 -60 45 -116 101
-65 65 -107 100 -118 97 -13 -2 10 -30 82 -100 57 -57 92 -98 83 -98 -9 0 -61
45 -116 100 -55 55 -106 100 -115 100 -8 0 30 -45 85 -100 73 -73 94 -100 80
-100 -12 0 -62 42 -125 105 -58 58 -111 105 -120 105 -8 0 32 -47 90 -105 58
-58 98 -105 90 -105 -8 0 -62 47 -120 105 -94 93 -130 120 -130 98 0 -4 44
-52 97 -105 l98 -98 -100 -1 c-55 0 -170 -1 -255 -2 l-155 -2 -2 -155 c-1 -85
-2 -375 -3 -645 l0 -490 -215 -247 c-118 -136 -215 -250 -215 -253 0 -3 51 -5
113 -5 l112 1 99 115 c54 63 100 113 102 111 2 -2 4 -173 4 -380 l1 -377 149
0 150 0 0 -135 c0 -74 3 -135 8 -135 4 0 61 31 127 69 l120 68 3 67 3 66 372
0 372 0 80 -80 c44 -44 84 -80 90 -80 5 0 -24 34 -65 75 -41 41 -71 78 -67 82
4 4 45 -30 90 -75 45 -45 87 -82 92 -82 5 0 -24 34 -65 75 -41 41 -71 78 -67
82 4 4 45 -30 90 -75 45 -45 87 -82 92 -82 5 0 -24 34 -65 75 -41 41 -71 77
-67 81 3 4 44 -30 90 -75 46 -44 87 -81 92 -81 5 0 -26 36 -70 80 -44 44 -73
80 -66 80 7 0 50 -36 95 -80 45 -44 86 -80 91 -80 5 0 -26 36 -70 80 -44 44
-75 80 -70 80 6 0 48 -36 93 -80 46 -44 89 -80 95 -80 6 0 -24 36 -68 80 l-80
80 178 0 177 0 0 -50 c0 -49 1 -50 29 -50 28 0 30 2 33 48 3 40 6 47 25 50 22
3 22 0 25 -95 l3 -98 33 -3 32 -3 0 101 c0 99 0 101 23 98 21 -3 22 -6 25
-145 l3 -143 29 0 30 0 0 145 0 145 25 0 25 0 0 -196 0 -195 33 3 32 3 2 525
2 525 132 5 131 5 -132 115 -132 115 -1 710 -2 710 -110 1 c-60 1 -116 2 -122
3 -10 1 -13 38 -13 150 l0 150 -127 -73 -128 -74 -3 -76 -3 -76 -172 0 -172 1
45 22 c104 50 161 140 168 263 4 72 1 89 -20 136 -54 117 -144 178 -271 185
-55 2 -84 -2 -123 -17z m231 -24 c57 -26 126 -97 151 -153 26 -59 24 -166 -5
-230 -26 -58 -93 -127 -146 -149 -52 -21 -57 -17 -29 24 36 52 29 105 -20 149
-88 81 -224 6 -202 -112 4 -18 13 -38 21 -45 31 -25 14 -30 -26 -8 -215 120
-206 421 15 524 71 33 171 33 241 0z m-78 -356 c42 -25 56 -54 50 -102 -6 -47
-21 -67 -65 -85 -96 -40 -185 79 -121 161 38 48 85 57 136 26z m781 -1377 l2
-1043 -1050 0 -1050 0 0 1038 c0 571 3 1042 7 1045 3 4 475 6 1047 5 l1041 -3
3 -1042z m-1770 -1235 c45 -27 82 -50 82 -53 0 -2 -47 -30 -105 -64 l-105 -60
0 125 0 125 23 -12 c12 -7 59 -34 105 -61z"/>
<path d="M3718 4127 c-48 -83 -101 -176 -118 -204 l-30 -53 239 0 240 0 -117
205 c-64 112 -119 204 -122 205 -3 0 -44 -69 -92 -153z"/>
<path d="M4055 3428 c-27 -34 -69 -82 -93 -108 -23 -26 -52 -59 -63 -74 l-20
-26 115 0 116 0 0 135 c0 74 -1 135 -2 134 -2 0 -25 -28 -53 -61z"/>
<path d="M850 3044 c0 -77 2 -93 13 -82 31 33 134 154 141 166 5 9 -12 12 -73
12 l-81 0 0 -96z"/>
<path d="M3909 2912 c-74 -66 -12 -186 87 -168 31 6 66 37 77 69 6 15 -1 17
-48 17 -30 0 -55 5 -55 10 0 6 23 10 50 10 41 0 50 3 50 18 -1 38 -48 72 -99
72 -19 0 -42 -10 -62 -28z"/>
<path d="M3708 1730 l-3 -60 63 0 62 0 0 -35 c0 -33 2 -35 36 -35 34 0 35 1
32 33 -2 17 -9 33 -15 33 -7 1 -22 2 -33 3 -18 1 -20 8 -20 61 l0 60 -59 0
-59 0 -4 -60z"/>
<path d="M2727 1090 c-38 -32 -69 -62 -69 -67 0 -4 39 -22 86 -39 47 -17 86
-27 86 -21 0 11 -31 181 -33 183 -1 1 -33 -24 -70 -56z"/>
</g>
</svg>
