<?xml version="1.0" standalone="no"?>
<!DOCTYPE svg PUBLIC "-//W3C//DTD SVG 20010904//EN"
 "http://www.w3.org/TR/2001/REC-SVG-20010904/DTD/svg10.dtd">
<svg version="1.0" xmlns="http://www.w3.org/2000/svg"
 width="486.000000pt" height="513.000000pt" viewBox="0 0 486.000000 513.000000"
 preserveAspectRatio="xMidYMid meet">
<metadata>
Created by potrace 1.16, written by Peter Selinger 2001-2019
</metadata>
<g transform="translate(0.000000,513.000000) scale(0.100000,-0.100000)"
fill="#000000" stroke="none">
<path d="M2395 3959 c-106 -160 -115 -177 -95 -164 9 5 11 4 6 -4 -4 -6 -11 -9 -16 -6 -4 3 -13 -2 -20 -10 -10 -13 -19 -9 -57 24 -55 49 -118 71 -202 71 -123 0 -247 -86 -285 -197 -20 -60 -20 -157 0 -216 21 -61 96 -144 156 -172 l48 -22 -42 -59 c-23 -32 -160 -237 -306 -454 -146 -217 -266 -396 -267 -397 -1 -2 -65 61 -143 139 -77 78 -143 140 -146 137 -3 -2 -28 -90 -56 -193 l-51 -189 97 -98 98 -99 -162 -239 c-89 -132 -162 -242 -162 -245 0 -3 65 -6 145
-6 140 0 145 -1 145 -21 l0 -21 34 21 c26 17 50 21 110 21 86 0 79 10 78 -102 0 -27 2 -48 4 -48 2 0 21 19 44 42 23 25 37 35 33 23 -5 -14 6 -9 43 20 l49 39 -34 -36 -33 -36 38 -12 c22 -6 80 -10 132 -8 68 2 92 0 92 -9 0 -9 -38 -13 -137 -16 l-138 -3 143 -2 142 -2 0 38 c0 20 3 54 6 75 7 37 7 37 55 37 37 0 49 -4 49 -15 0 -10 10 -15 30 -15 20 0 30 5 30 15 0 9 9 15 25 15 24 0 25 -2 25 -66 l0 -65 33 3 c32 3 32 3 35 66 2 52 6 62 21 62 21 0 31 -50 31 -156 l0
-64 30 0 30 0 0 110 0 110 25 0 25 0 0 -160 0 -160 30 0 30 0 0 129 c0 71 3 143 6 160 l7 31 283 0 284 0 55 -31 55 -31 0 31 0 31 82 0 82 0 -28 -29 -29 -30 122 -3 c66 -2 121 1 121 5 0 5 4 6 9 3 5 -3 22 4 37 16 16 12 23 15 17 8 -23 -26 -13 -31 50 -29 68 3 87 12 87 40 0 18 17 19 389 21 l388 3 -63 97 c-35 54 -60 98 -56 98 5 0 16 6 26 13 16 12 14 13 -17 9 -28 -3 -38 1 -51 20 -9 12 -22 23 -29 23 -6 0 -12 7 -13 15 -1 35 -23 74 -131 233 -81 119 -112
172 -105 180 6 7 38 28 71 47 l61 35 0 177 0 177 -152 -87 c-84 -47 -155 -90 -158 -94 -5 -6 -418 595 -428 623 -2 5 16 33 40 62 53 63 70 90 40 63 -20 -17 -22 -18 -22 -2 0 9 -5 14 -10 11 -8 -5 -7 -11 1 -21 6 -8 9 -17 6 -21 -4 -3 -9 2 -13 11 -3 9 -10 14 -14 11 -4 -3 -11 2 -14 11 -4 11 -2 15 8 11 8 -3 17 1 20 9 3 8 2 13 -3 10 -5 -3 -11 4 -15 17 -3 12 -21 39 -39 60 -19 20 -42 52 -50 70 -9 17 -25 39 -36 47 -12 8 -21 20 -21 28 0 7 -4 11 -9 7 -5 -3 -16 2
-24 10 -26 25 -49 19 -47 -12 4 -50 0 -74 -9 -69 -5 3 -109 154 -231 336 -122 181 -222 330 -223 330 -1 0 -47 -68 -102 -151z m-268 -124 c57 -24 126 -84 117 -104 -4 -9 -6 -25 -6 -36 1 -14 -1 -16 -7 -6 -7 10 -12 8 -25 -10 -19 -27 -21 -43 -4 -33 7 4 8 3 4 -5 -4 -6 -11 -9 -16 -6 -5 3 -32 -29 -60 -70 -37 -56 -56 -75 -68 -71 -53 16 -72 16 -105 3 -67 -29 -95 -110 -59 -172 26 -43 19 -44 -41 -5 -57 36 -102 97 -122 163 -19 63 -19 100 0 163 49 165 235 255
392 189z m663 -621 c264 -395 314 -465 297 -420 -4 11 -3 15 4 11 6 -4 8 -13 5 -21 -3 -9 126 -211 310 -486 173 -259 313 -472 311 -474 -2 -2 -338 -4 -747 -4 -477 -1 -749 -5 -756 -11 -8 -7 -14 -6 -19 1 -4 7 -156 10 -465 10 l-460 0 68 103 c37 56 173 260 303 452 130 193 374 556 543 808 169 251 310 457 314 457 4 0 135 -192 292 -426z m-746 270 c9 -3 16 -10 16 -15 0 -17 -105 -169 -117 -169 -18 0 -43 53 -43 91 0 63 83 116 144 93z m-891 -1011 c64 -64 116
-118 114 -119 -6 -6 -310 -85 -313 -81 -4 3 76 317 81 317 0 0 54 -53 118 -117z m2610 -70 c53 -30 97 -58 97 -62 0 -3 -27 -21 -60 -39 l-59 -32 -61 89 c-33 50 -60 97 -60 106 0 18 -4 20 143 -62z"/>
<path d="M3388 3406 l-117 -134 32 -3 c18 -2 71 -2 118 1 l86 5 2 133 c0 72 0 132 -2 132 -1 0 -55 -60 -119 -134z"/>
<path d="M1416 3257 c-31 -52 -58 -101 -61 -108 -4 -11 17 -14 115 -14 66 0 120 3 120 7 0 3 -27 52 -59 108 l-59 102 -56 -95z"/>
<path d="M3629 2981 c-49 -49 -38 -125 23 -157 53 -27 121 0 141 59 6 15 0 17 -43 17 -61 0 -78 19 -18 22 24 0 49 1 56 1 15 -1 15 2 -3 37 -31 59 -107 69 -156 21z"/>
<path d="M4071 2427 l1 -117 134 0 135 0 -113 96 c-62 53 -123 106 -136 117 l-22 21 1 -117z"/>
</g>
</svg>
